<svg width="346" height="133" viewBox="0 0 346 133" fill="none" xmlns="http://www.w3.org/2000/svg">
<g clip-path="url(#clip0_176_180)">
<rect y="-0.117676" width="345.539" height="143.053" fill="white"/>
<path d="M0 -12.4145V76.7346H3.38628C6.08149 76.7346 7.25632 77.1492 8.91491 78.5314C11.2646 80.4664 11.4028 80.19 10.2971 75.8362C9.74421 73.4865 8.98402 72.5881 6.56525 71.0678C4.90666 70.1003 3.04075 68.2343 2.41877 67.0595C1.24394 64.8481 0.829294 61.1853 1.58948 60.4252C2.48788 59.5267 6.63435 62.7057 7.87829 65.1936C8.56937 66.6449 9.19134 67.7506 9.32956 67.6124C9.39867 67.4742 9.74421 65.6082 9.95153 63.3968C10.3662 60.1487 10.2971 59.4576 9.39867 59.4576C8.01651 59.4576 5.66684 56.2787 5.18309 53.6526C4.90666 52.4778 5.11398 50.5427 5.52863 49.437L6.35792 47.3638L8.01651 49.2988C8.98402 50.4045 10.0897 52.616 10.5044 54.2746L11.3337 57.3153L13.8907 51.994C18.2445 42.9409 18.4518 42.8026 23.0129 42.4571C25.3626 42.2498 26.9521 42.388 26.9521 42.8026C26.9521 43.9775 24.326 45.0141 21.3543 45.0832C19.4193 45.0832 18.3136 45.4978 17.6225 46.5345C16.1021 48.7459 16.3095 48.8841 20.0413 48.5386C21.9763 48.4004 23.4967 48.4004 23.4967 48.6768C23.4967 49.6443 18.8664 51.8558 16.8623 51.8558C14.9273 51.8558 14.5126 52.2013 13.5451 54.6201C12.163 58.0755 12.163 58.4901 13.476 57.3844C14.9964 56.1405 20.4559 54.6892 22.0454 55.1039C23.2893 55.4494 23.3585 55.6567 22.6674 56.5551C21.3543 58.1446 16.5859 60.1487 14.0289 60.1487C12.8541 60.1487 11.6792 60.4252 11.4719 60.7707C11.2646 61.1162 10.919 63.6732 10.7117 66.4375C10.3662 70.7222 10.4353 71.3442 11.1955 70.2385C13.6834 66.5757 16.2403 64.2952 19.4193 62.9821C21.3543 62.0837 23.082 61.6 23.2893 61.7382C23.4276 61.9455 23.1511 63.1204 22.5983 64.4334C21.3543 67.4742 17.277 70.9295 13.8216 71.9662C10.5044 73.0028 10.2971 74.3849 12.6467 80.19C14.7891 85.4422 17.8989 89.7269 23.4276 95.2555C27.7122 99.5402 38.0093 107.142 39.4606 107.142C39.8061 107.142 40.0826 105.76 40.0826 104.17C40.0826 100.508 42.7778 96.3612 47.0624 93.5278C49.4121 92.0074 49.965 91.8692 50.5178 92.6985C52.8675 96.4303 48.721 105 43.4688 107.142C42.3631 107.626 41.4647 108.04 41.4647 108.11C41.4647 108.179 43.1233 109.975 45.1274 112.187L48.8592 116.126L57.0831 116.195C64.4085 116.264 64.8923 116.333 61.506 116.886C59.4327 117.232 55.6318 117.301 53.0748 117.094L48.3755 116.679V119.858C48.3755 121.586 48.0991 123.037 47.8226 123.037C46.5787 123.037 42.4322 119.374 41.3265 117.301C40.7045 116.057 40.1517 113.638 40.0826 111.841C40.0826 108.939 39.8752 108.455 38.0784 107.557C36.2816 106.589 35.867 106.658 33.1718 107.971C29.0944 110.045 23.8422 110.321 20.8015 108.732C19.4884 108.04 18.3136 107.142 18.1063 106.658C17.4152 104.378 27.7814 102.581 31.2367 104.447C34.2084 106.036 32.8262 104.516 27.6431 100.439C22.3218 96.2921 22.1836 96.1539 19.6266 96.9141C18.1754 97.2596 15.2037 97.4669 12.9232 97.3287C9.74421 97.0523 8.56937 96.6377 7.049 95.1864C5.45952 93.5969 5.3213 93.1823 6.21971 92.6294C7.80919 91.5928 13.9598 91.8001 17.2079 92.9749C20.1104 93.9425 20.8706 93.5278 18.9355 91.8692C18.3136 91.3855 16.9314 89.6578 15.8948 88.0683C14.098 85.5113 13.476 85.1658 9.6751 84.4056C6.42703 83.7836 4.90666 83.0234 2.76431 80.9502L0 78.3241V161.184V243.976H172.77H345.539V71.206V-101.564H172.77H0V-12.4145ZM75.5349 19.0296C77.8154 21.3792 78.3683 23.5216 76.7097 23.5216C74.982 23.5216 71.8722 20.3426 71.8722 18.684C71.8722 16.8181 73.3925 16.9563 75.5349 19.0296ZM64.4085 18.684C65.7907 19.0987 67.5184 20.1353 68.2785 21.0337C69.1078 22.1394 71.0429 23.0378 73.8072 23.798C76.0877 24.3509 80.096 25.8021 82.653 26.9769C85.21 28.0827 87.3523 29.0502 87.4905 29.0502C87.6287 29.0502 86.9377 28.2209 86.0393 27.2534C83.966 25.0419 83.3441 23.2451 83.8969 21.1028C84.8644 17.371 88.6654 22.4849 88.3889 27.0461C88.1816 29.603 88.3889 29.9486 91.5679 32.3674C96.0599 35.7536 99.7226 40.6603 102.28 46.6727L104.284 51.5102L103.869 48.0548C103.593 45.6361 103.869 43.7702 104.698 41.8351C105.735 39.209 105.873 39.1399 106.841 40.3839C108.361 42.5262 108.776 46.1889 107.877 50.1972C106.91 54.4819 106.011 55.3803 105.044 53.0997C104.56 51.9249 104.491 52.4778 104.767 55.3112C105.32 61.0471 105.459 61.1853 107.808 58.9048C110.296 56.4169 113.959 54.9656 114.443 56.2096C114.995 57.6608 112.853 63.535 110.918 66.092C108.845 68.8563 104.076 72.2426 103.109 71.6206C102.694 71.4133 102.694 70.1003 103.109 68.3034C104.767 60.0796 104.837 60.4252 101.589 59.8723C96.4746 59.043 91.5679 55.7258 89.4256 51.6485L88.3889 49.7825H90.8768C94.194 49.7825 98.6169 52.1322 101.796 55.5876L104.491 58.421L103.938 55.6567C103.04 50.75 101.105 45.9816 100.137 46.1889C99.5844 46.3271 97.3038 46.4654 94.9542 46.4654C90.6004 46.4654 88.5272 45.7743 85.8319 43.3555C83.8278 41.4896 84.8644 40.7985 89.702 40.7985C93.2956 40.7985 96.5437 41.9734 99.0315 44.1157C100.621 45.4978 100.552 44.5995 98.686 41.5587C96.129 37.274 94.6777 35.961 93.2265 36.6521C91.4988 37.6196 85.0718 37.4813 82.5839 36.3756L80.5106 35.4772L82.1001 34.6479C84.1734 33.5422 89.9093 33.5422 91.9825 34.6479L93.6411 35.4772L92.3281 33.9568C91.5679 33.1275 89.9093 31.8145 88.5963 30.9852C86.3157 29.603 86.1775 29.5339 84.1734 30.7779C82.031 32.0218 77.1244 32.4365 76.1568 31.5381C75.1893 30.5706 78.3683 29.0502 81.409 29.0502C85.0026 29.0502 84.7262 28.1518 80.5798 26.7696C77.7463 25.8021 77.4699 25.8021 76.226 27.1152C74.4983 28.7738 68.7623 29.7413 69.2461 28.29C69.3843 27.7371 70.9738 26.8387 72.7706 26.2168L76.0186 25.111L73.047 24.42C70.2827 23.798 69.7989 23.9362 68.1403 25.3875C66.2744 26.9769 63.5792 27.5298 63.5792 26.355C63.5792 26.0094 64.4085 25.0419 65.376 24.2817L67.2419 22.8305H65.5142C63.6483 22.8305 59.3636 20.2735 58.8799 18.8222C58.5343 17.7856 60.884 17.7165 64.4085 18.684ZM45.8876 19.7897C46.4405 21.241 45.1274 22.8305 43.3997 22.8305C41.9485 22.8305 41.1192 21.3101 41.7411 19.7206C42.2249 18.3385 45.3347 18.4076 45.8876 19.7897ZM54.5952 20.4808C54.5952 23.176 51.3471 28.3591 49.5503 28.3591C48.5828 28.3591 49.7576 24.0744 51.5545 21.241C53.4895 18.2694 54.5952 17.9929 54.5952 20.4808ZM97.9258 27.7371C99.308 29.8104 99.8608 31.6763 100.068 34.7861L100.345 39.0708L98.5478 37.4122C94.4704 33.6113 92.3281 24.9037 95.507 24.9037C95.7835 24.9037 96.8892 26.1477 97.9258 27.7371ZM27.4358 30.9161C27.2976 32.5747 26.5374 34.5788 25.8463 35.339C24.5333 36.7903 24.5333 36.7903 26.6065 36.5829C29.7164 36.3756 31.0985 36.5829 31.0985 37.3431C31.0985 38.3797 26.1919 39.0017 24.7406 38.1033C23.7731 37.4813 23.4967 37.5504 23.4967 38.2415C23.4967 38.7944 22.7365 39.9001 21.769 40.7985C20.8015 41.6969 20.0413 42.1116 20.0413 41.6969C20.0413 41.3514 20.6632 40.453 21.4234 39.7619C22.4601 38.8635 22.8056 37.6196 22.8056 35.1317C22.8056 32.0218 23.9113 28.7047 25.7772 26.4241C26.9521 24.9728 27.8505 27.3916 27.4358 30.9161ZM131.305 71.2751C131.305 114.951 131.305 115.435 129.923 115.435C128.541 115.435 128.541 114.951 128.541 71.3442C128.541 47.0873 128.748 27.0461 128.955 26.7696C129.163 26.5623 129.785 26.5623 130.337 26.7696C131.167 27.0461 131.305 34.026 131.305 71.2751ZM41.8102 27.668C42.4322 28.6355 38.0093 31.1234 35.5905 31.1234C34.4848 31.1234 33.0336 30.7779 32.4807 30.4323C31.5823 29.8104 31.6514 29.5339 33.1027 28.3591C34.8304 26.8387 41.0501 26.355 41.8102 27.668ZM64.2703 32.16C65.376 32.782 66.8273 34.1642 67.3801 35.2699C68.4168 37.274 68.4168 37.3431 67.0346 37.3431C63.9248 37.3431 60.1238 34.3024 60.1238 31.8836C60.1238 30.847 61.9206 30.9161 64.2703 32.16ZM152.728 40.7294V49.0224L154.663 47.9857C159.294 45.567 165.859 47.502 168.623 51.994C170.351 54.8274 170.489 60.7016 168.9 64.0188C166.619 68.8563 160.054 71.0678 153.972 69.0636C151.484 68.2343 151.07 68.3034 150.31 69.3401C148.167 72.3117 147.891 70.7222 147.891 53.5835V36.6521L145.679 35.2699C143.537 33.9568 143.537 33.9568 145.196 33.6113C153.419 31.8145 152.728 31.1925 152.728 40.7294ZM53.6968 35.339C55.3554 36.0992 56.6684 37.0667 56.6684 37.4122C56.6684 37.7578 58.4652 38.0342 60.6767 38.1033C64.063 38.1033 71.6648 39.831 69.3152 40.0383C68.8314 40.1074 68.4168 40.5912 68.4168 41.2132C68.4168 41.8351 67.3801 43.3555 66.0671 44.6686C63.441 47.2947 60.8149 47.7784 60.8149 45.7052C60.8149 43.9775 64.063 40.1074 65.5142 40.1074C66.5509 40.0383 66.5509 39.9692 65.4451 39.3473C64.8232 39.0017 62.4735 38.7253 60.262 38.8635L56.3229 39.0708L55.9774 41.8351C55.5627 44.6686 53.5586 48.4004 52.4529 48.4004C51.4853 48.4004 51.7618 44.3921 52.8675 42.1807C53.4895 41.0058 54.3188 40.1074 54.7334 40.1074C55.1481 40.1074 55.3554 39.9001 55.079 39.6928C54.6643 39.209 49.343 41.6278 47.4771 43.1482C46.3023 44.0466 46.3023 44.2539 47.2698 46.258C48.5137 48.5386 48.721 51.5793 47.7535 52.2013C46.8551 52.7542 44.9201 49.7825 44.9201 47.8475C44.9201 45.7052 43.9526 46.3963 41.7411 50.1972L39.8752 53.3761L41.672 54.8274C43.4688 56.2787 45.3347 60.0105 44.6437 60.7016C43.8835 61.3927 40.7736 58.6283 40.359 56.9007C39.8752 55.173 39.8061 55.173 39.3224 56.3478C39.0459 57.108 38.7695 59.043 38.7695 60.6325C38.7004 63.2586 38.9077 63.535 40.7045 63.9496C42.6395 64.3643 45.473 66.714 44.7819 67.405C44.2981 67.9579 40.0826 66.2993 40.0826 65.6082C40.0826 65.2627 39.737 64.9863 39.3915 64.9863C38.5622 64.9863 39.115 67.8888 40.4972 70.6531C41.4647 72.4499 41.5338 72.519 43.8835 71.4824C46.4405 70.4458 50.0341 70.8604 49.5503 72.1735C49.4121 72.5881 47.7535 72.9337 45.7494 72.9337C43.7453 72.9337 42.1558 73.0719 42.1558 73.2792C42.2249 73.763 44.9892 76.7346 46.786 78.3241C48.1682 79.568 48.3755 79.568 50.0341 78.4623C51.9 77.2184 56.6684 77.4948 56.6684 78.8078C56.6684 79.8445 54.1805 80.8811 51.7618 80.8811C49.6885 80.8811 49.6194 80.9502 50.6561 82.125C51.9 83.5072 52.2455 86.4097 51.2089 86.4097C50.2414 86.4097 47.6844 82.9543 47.6844 81.6413C47.6844 80.9502 46.5787 79.4298 45.2656 78.1168L42.8469 75.7671V77.9785C42.8469 79.2225 42.5704 80.19 42.2249 80.19C41.2574 80.19 40.0134 76.1126 40.4972 74.3849C40.7045 73.5556 40.1517 71.3442 39.3224 69.4783C37.9402 66.2993 37.7329 66.1611 37.1109 67.5433C36.7654 68.3725 36.0052 69.2018 35.5214 69.4092C33.932 70.0311 34.4157 67.1286 36.2125 65.3318C37.4565 64.0879 37.8711 62.7748 38.1475 59.5959L38.424 55.5185L36.0743 57.1771C31.9969 59.9414 30.2692 58.8357 33.5173 55.6567C34.4848 54.6201 36.0052 53.929 37.18 53.929C38.7695 53.929 39.3915 53.4453 40.6354 50.8192C41.4647 49.0915 43.3997 46.3271 44.9201 44.6686L47.6844 41.6278H44.9892C41.5338 41.5587 38.7695 40.2457 40.1517 39.3473C42.0867 38.1724 46.5096 39.0708 47.7535 40.9367C47.9608 41.2132 49.4121 40.8676 51.0016 40.1074C52.522 39.3473 54.3879 38.7253 55.079 38.6562C55.77 38.6562 54.9407 38.1033 53.213 37.4813C49.4812 36.0992 48.3755 35.4081 48.3755 34.5097C48.3755 33.4731 50.5178 33.8186 53.6968 35.339ZM18.8664 37.7578C19.212 39.0017 19.1429 40.5221 18.6591 41.8351C17.8989 43.8393 17.8298 43.8393 16.8623 42.5953C15.2728 40.3839 15.7566 34.8552 17.5534 35.4772C17.968 35.6154 18.5209 36.6521 18.8664 37.7578ZM79.1285 41.5587C79.7505 43.4937 78.0228 45.2214 76.0877 44.5995C74.7056 44.1848 74.0836 41.6278 75.1202 40.5912C76.1568 39.5546 78.7138 40.1765 79.1285 41.5587ZM13.8907 44.1157C14.6509 46.1198 14.1671 50.4736 13.1305 50.4736C11.9557 50.4736 10.3662 46.4654 10.3662 43.5628C10.3662 40.9367 10.4353 40.7985 11.7483 41.4896C12.5776 41.9043 13.5451 43.0791 13.8907 44.1157ZM32.066 46.7418C32.688 47.2947 33.1718 48.2622 33.1718 48.7459C33.1718 50.059 31.2367 51.8558 29.7855 51.8558C27.0903 51.8558 25.8463 47.7093 28.196 46.3963C29.8546 45.3596 30.8221 45.4978 32.066 46.7418ZM41.8102 46.6727C41.8102 47.0182 40.2899 47.4329 38.3549 47.5711C35.1068 47.7093 34.9686 47.6402 36.2816 46.6727C37.7329 45.4978 41.8102 45.4978 41.8102 46.6727ZM179.75 48.8841C179.75 49.9899 179.957 50.4045 180.164 49.9208C180.717 48.5386 184.242 47.0182 186.799 47.0182C189.425 47.0182 191.014 48.3313 190.323 50.059C189.77 51.5793 188.319 51.4411 186.038 49.7825C182.03 46.8109 180.371 49.9208 180.371 60.2178C180.371 66.7831 180.441 66.9904 182.307 68.3725L184.172 69.7547L178.16 69.8238C174.774 69.8238 172.079 69.6856 172.079 69.4783C172.079 69.271 172.839 68.7872 173.806 68.4417C175.534 67.8197 175.534 67.7506 175.534 58.7666V49.7825L173.737 48.9532C172.148 48.1931 172.079 48.0548 173.253 47.6402C173.944 47.3638 175.672 47.0873 177.123 47.0873C179.473 47.0182 179.68 47.1564 179.75 48.8841ZM208.015 48.0548C210.088 49.0915 212.161 52.2704 212.161 54.2746C212.161 55.173 210.917 55.3112 204.145 55.3112H196.128L196.612 58.5592C197.234 63.1204 198.961 65.8156 202.071 67.3359C205.596 69.0636 209.535 68.027 210.917 64.9863C211.401 63.8114 212.023 62.913 212.299 62.913C213.958 62.913 211.055 67.5433 208.706 68.7872C205.596 70.3767 199.722 70.1694 196.957 68.2343C192.949 65.5391 191.774 63.3277 191.774 58.4901C191.774 54.8274 192.12 53.7217 193.64 51.7176C196.957 47.3638 203.453 45.7052 208.015 48.0548ZM223.771 48.0548C224.255 49.0224 224.531 49.0224 226.397 48.0548C229.645 46.3963 234.483 46.6727 236.971 48.815L239.113 50.6118V58.8357V67.0595L241.394 68.4417L243.605 69.8238H237.04C230.889 69.7547 230.613 69.6856 232.341 68.7872C233.654 68.027 234.345 66.9904 234.69 65.2627C235.381 61.6691 234.69 50.75 233.723 49.5752C231.511 46.9491 226.121 47.7093 224.67 50.8883C224.255 51.8558 223.909 55.864 223.909 59.8032C223.909 66.7831 223.979 66.9904 225.844 68.3725L227.71 69.7547L221.698 69.8238C218.312 69.8238 215.616 69.6856 215.616 69.4783C215.616 69.271 216.377 68.7872 217.344 68.4417C219.072 67.8197 219.072 67.7506 219.072 58.7666V49.7825L217.275 48.9532C215.686 48.1931 215.616 48.0548 216.791 47.6402C219.072 46.6727 223.149 46.9491 223.771 48.0548ZM252.105 48.0548C252.589 49.0224 252.866 49.0224 254.732 48.0548C257.98 46.3963 262.817 46.6727 265.305 48.815L267.447 50.6118V58.8357V67.0595L269.728 68.4417L271.939 69.8238H265.374C259.224 69.7547 258.947 69.6856 260.675 68.7872C261.988 68.027 262.679 66.9904 263.024 65.2627C263.716 61.6691 263.024 50.75 262.057 49.5752C259.845 46.9491 254.455 47.7093 253.004 50.8883C252.589 51.8558 252.244 55.864 252.244 59.8032C252.244 66.7831 252.313 66.9904 254.179 68.3725L256.045 69.7547L250.032 69.8238C246.646 69.8238 243.951 69.6856 243.951 69.4783C243.951 69.271 244.711 68.7872 245.678 68.4417C247.406 67.8197 247.406 67.7506 247.406 58.7666V49.7825L245.609 48.9532C244.02 48.1931 243.951 48.0548 245.126 47.6402C247.406 46.6727 251.483 46.9491 252.105 48.0548ZM279.956 55.1039C280.025 59.5959 280.232 64.0188 280.509 64.9863C281.614 68.9254 288.387 69.1327 290.184 65.2627C290.598 64.2952 290.944 60.4252 290.944 56.6242V49.7825L288.733 48.4004L286.452 47.0182H290.806H295.091L295.16 56.1405C295.16 66.2993 295.436 67.4742 297.924 68.8563C299.444 69.6856 299.306 69.7547 295.298 69.8238C291.842 69.8238 290.944 69.6165 290.944 68.7872C290.944 67.8197 290.737 67.8197 288.871 68.7872C287.765 69.3401 285.277 69.8238 283.342 69.8238C280.301 69.8238 279.472 69.4783 277.744 67.8197C275.74 65.8156 275.74 65.6773 275.74 57.7991V49.7825L273.529 48.4004L271.248 47.0182H275.602H279.887L279.956 55.1039ZM314.441 50.2663V53.5835L313.059 51.3029C311.262 48.3313 308.567 47.2947 306.424 48.7459C303.107 50.8883 304.697 53.6526 310.64 56.3478C312.644 57.1771 314.786 58.6283 315.408 59.5267C317.205 62.0837 316.859 65.47 314.51 67.8197C312.575 69.6856 312.16 69.8238 306.908 69.8238H301.31V66.3684C301.31 64.4334 301.518 62.913 301.863 62.913C302.139 62.913 302.969 63.9496 303.66 65.2627C306.079 69.7547 311.745 70.1694 312.782 66.0229C313.335 63.7423 312.022 62.222 307.115 59.4576C305.111 58.3519 303.107 56.8315 302.692 56.0714C301.448 53.6526 301.863 50.75 303.798 48.815C305.388 47.2256 306.217 47.0182 310.018 47.0182H314.441V50.2663ZM97.3038 63.0512C99.6535 65.4009 96.8892 69.271 93.9867 67.7506C91.5679 66.4375 92.6045 62.222 95.3688 62.222C95.9908 62.222 96.8201 62.5675 97.3038 63.0512ZM110.642 71.897C112.715 73.0719 114.512 77.4257 114.097 80.3973C113.959 81.4339 111.195 79.3607 109.881 77.2184C108.638 75.2142 107.946 71.206 108.914 71.206C109.121 71.206 109.881 71.5515 110.642 71.897ZM24.5333 75.6289C25.1553 80.6738 24.3951 84.682 22.3218 87.1008C20.3868 89.3813 19.0047 89.7269 18.3827 88.0683C17.5534 85.9259 17.968 80.1209 19.0738 77.9094C20.7324 74.7305 22.8056 71.897 23.4967 71.897C23.8422 71.897 24.326 73.5556 24.5333 75.6289ZM86.0393 75.3524C84.3116 78.6696 80.2342 82.8852 77.1244 84.4747C74.0836 86.0642 65.0996 87.1699 65.9289 85.8568C66.1362 85.4422 68.8314 84.3365 71.8031 83.2999C77.8154 81.2957 81.7546 78.8078 84.7262 75.076C87.0759 72.1735 87.6287 72.3117 86.0393 75.3524ZM97.373 74.2467C99.0315 75.9744 100.552 80.4664 99.8608 81.5721C98.6169 83.5763 93.9867 77.9785 93.9867 74.454C93.9867 72.1044 95.2997 72.0353 97.373 74.2467ZM31.8587 77.4948C32.4807 78.7387 32.3425 79.2225 31.2367 80.3282C30.131 81.4339 29.6473 81.5721 28.4033 80.9502C27.0212 80.19 26.3992 77.4948 27.4358 76.5273C28.4033 75.4907 31.0985 76.1126 31.8587 77.4948ZM107.463 86.3406C106.841 89.6578 92.1208 104.654 85.1409 109.008C80.1651 112.118 70.0754 116.126 67.3801 116.057C66.62 116.057 68.3477 115.297 71.1811 114.467C81.8237 111.219 90.5313 105.553 97.4421 97.3978C100.137 94.2189 100.552 93.2514 100.967 89.4504C101.45 84.9584 103.04 81.9868 105.942 80.3973C107.324 79.6371 107.463 79.7753 107.67 81.7795C107.808 82.9543 107.739 84.9584 107.463 86.3406ZM58.0506 83.369C58.8799 84.1982 58.8108 84.3365 57.0831 84.3365C54.7334 84.3365 52.3146 83.0925 52.8675 82.1941C53.4204 81.3648 56.6684 82.125 58.0506 83.369ZM93.9176 82.5397C95.0924 83.9218 94.0558 85.7186 92.1899 85.7186C90.3931 85.7186 89.4256 84.3365 90.1166 82.6088C90.6004 81.2957 92.8809 81.2266 93.9176 82.5397ZM36.4889 88.7594C36.7654 92.4221 36.4889 93.8042 34.8995 97.3978C32.8262 101.89 32.2734 102.374 31.1676 100.3C28.4724 95.3937 28.9562 88.8285 32.2734 84.4747C33.8628 82.3323 34.1393 82.2632 35.1068 83.2307C35.7979 83.9218 36.3507 85.9259 36.4889 88.7594ZM96.4054 89.9342C96.6819 90.6944 96.6819 92.353 96.4746 93.5278C95.9908 96.0848 93.6411 99.402 92.8809 98.6418C91.8443 97.6743 92.259 92.2148 93.5029 90.3488C94.9542 88.1374 95.7835 87.9992 96.4054 89.9342ZM153.903 91.109C152.245 92.9058 152.245 100.646 153.903 102.443C154.94 103.618 154.871 103.687 151.346 103.687C147.96 103.687 147.753 103.618 148.997 102.719C150.102 101.89 150.31 100.853 150.31 96.7759C150.31 92.6985 150.102 91.6619 148.997 90.8326C147.753 89.9342 147.96 89.8651 151.346 89.8651C154.871 89.8651 154.94 89.9342 153.903 91.109ZM263.992 95.6702C263.992 99.9548 264.268 101.821 265.029 102.581C265.927 103.479 265.651 103.618 262.126 103.618C257.427 103.618 255.699 102.443 255.699 99.1947C255.699 96.223 257.772 94.3571 260.537 94.91C262.264 95.2555 262.61 95.1173 262.61 94.0116C262.61 93.3205 262.126 92.2839 261.573 91.731C260.813 90.9017 260.744 90.5562 261.435 90.3488C263.785 89.3813 263.992 89.8651 263.992 95.6702ZM277.814 90.9017C277.814 91.4546 277.33 91.9383 276.777 91.9383C276.224 91.9383 275.74 91.4546 275.74 90.9017C275.74 90.3488 276.224 89.8651 276.777 89.8651C277.33 89.8651 277.814 90.3488 277.814 90.9017ZM70.3518 98.4345C70.1445 100.784 69.4534 103.756 68.7623 105.069C67.3801 107.902 62.2662 113.362 61.0222 113.362C59.7092 113.362 59.1563 108.87 60.0547 105.345C61.0222 101.683 63.1646 98.0889 66.6891 94.288C69.0387 91.8692 69.2461 91.731 69.9371 92.9058C70.3518 93.5969 70.49 96.0848 70.3518 98.4345ZM196.474 94.7717C197.303 94.8409 200.966 94.8409 204.559 94.8409C208.153 94.8409 211.539 95.1864 212.023 95.5319C212.438 95.9466 212.852 97.5361 212.852 99.1255C212.852 100.715 213.198 102.374 213.681 102.857C214.303 103.479 213.889 103.687 211.816 103.687C209.742 103.687 209.328 103.479 209.95 102.857C211.194 101.613 210.986 96.1539 209.673 95.601C208.222 95.0482 207.324 96.0848 206.909 98.9873C206.632 100.715 206.84 101.683 207.669 102.512C208.706 103.618 208.637 103.687 206.218 103.687C204.145 103.687 203.799 103.479 204.421 102.857C205.596 101.683 205.458 97.1214 204.214 96.0848C203.384 95.3937 202.97 95.3937 202.14 96.0848C200.896 97.1214 200.758 101.683 202.002 102.926C202.693 103.618 201.933 103.687 198.34 103.548L193.848 103.341L193.64 99.3329C193.502 97.1905 193.156 95.3937 192.742 95.3937C192.396 95.3937 192.604 94.6335 193.295 93.7351C194.469 92.2148 194.539 92.1456 194.746 93.3896C194.884 94.1498 195.575 94.7026 196.474 94.7717ZM239.32 94.7717C240.841 94.91 240.841 94.91 239.32 95.1864C237.938 95.4628 237.731 95.9466 237.731 98.4345C237.731 101.89 238.837 103.41 240.357 102.097C241.186 101.406 241.325 101.475 241.048 102.305C240.841 102.926 239.873 103.341 238.699 103.341C236.763 103.341 236.694 103.272 236.487 99.3329C236.349 97.1905 236.003 95.3937 235.589 95.3937C235.243 95.3937 235.45 94.6335 236.142 93.7351C237.316 92.2148 237.385 92.1456 237.593 93.3896C237.731 94.1498 238.422 94.7717 239.32 94.7717ZM88.3889 98.3654C88.458 100.162 87.9743 102.788 87.3523 104.24L86.2466 106.797L85.21 104.378C84.0351 101.683 84.3116 99.0564 86.0393 94.9791C87.0759 92.6294 87.2832 92.4221 87.767 93.666C88.1125 94.4262 88.3889 96.5686 88.3889 98.3654ZM79.8887 96.4995C80.5798 100.162 79.6813 104.931 77.7463 108.248C76.7788 109.906 75.6731 111.427 75.3276 111.634C73.5999 112.74 72.5632 104.861 74.0145 101.13C74.9129 98.7109 78.0919 94.0116 78.8521 94.0116C79.1285 94.0116 79.6122 95.1173 79.8887 96.4995ZM158.948 98.3654C158.948 100.369 159.294 102.374 159.777 102.857C160.399 103.479 159.985 103.687 157.911 103.687C155.838 103.687 155.424 103.479 156.046 102.857C157.082 101.821 157.151 97.0523 156.184 96.4303C155.147 95.8084 156.046 94.7026 157.635 94.7026C158.741 94.7026 158.948 95.1864 158.948 98.3654ZM164.477 96.0157C164.822 96.7759 165.168 98.4345 165.168 99.6784C165.168 100.991 165.513 102.374 165.997 102.857C166.619 103.479 166.204 103.687 164.131 103.687C162.058 103.687 161.643 103.479 162.265 102.857C164.338 100.784 162.473 94.4262 160.261 95.8084C159.708 96.0848 159.639 96.0157 159.916 95.5319C160.676 94.2189 163.647 94.5644 164.477 96.0157ZM170.144 95.5319C169.66 96.1539 169.729 97.1214 170.489 98.8491L171.457 101.268L172.493 98.9182C173.253 97.1905 173.253 96.3612 172.701 95.6702C172.079 94.91 172.286 94.7026 173.668 94.7026H175.396L174.152 97.1905C173.461 98.5036 172.562 100.508 172.148 101.683C171.526 103.548 170.005 104.516 170.005 103.065C170.005 102.581 168.07 97.8816 166.688 95.1864C166.55 94.91 167.448 94.7026 168.623 94.7026C170.351 94.7026 170.696 94.91 170.144 95.5319ZM182.307 95.5319C183.965 97.1905 183.205 98.158 180.371 98.158C178.091 98.158 177.607 98.3654 177.607 99.4711C177.607 100.991 179.335 102.996 180.648 102.996C181.063 102.996 181.823 102.65 182.307 102.166C182.859 101.613 183.136 101.613 183.136 102.097C183.136 102.996 181.546 103.687 179.473 103.687C176.018 103.687 174.221 98.7109 176.709 95.9466C177.953 94.5644 181.063 94.288 182.307 95.5319ZM190.738 95.7393C190.738 96.6377 190.461 96.7068 189.286 96.0157C188.181 95.4628 187.628 95.4628 187.006 96.0848C186.453 96.7068 186.453 97.0523 187.144 97.2596C187.628 97.4669 188.872 98.2962 189.839 99.1255C191.36 100.439 191.498 100.853 190.807 102.166C189.632 104.378 185.209 104.378 185.209 102.166C185.209 100.715 185.278 100.715 186.591 101.959C187.697 102.926 188.181 103.065 188.803 102.443C189.494 101.752 189.148 101.13 187.42 99.5402C185.002 97.3287 184.794 96.7759 186.038 95.5319C187.282 94.288 190.738 94.4953 190.738 95.7393ZM221.698 95.5319C223.357 97.1905 222.596 98.158 219.763 98.158C217.482 98.158 216.999 98.3654 216.999 99.4711C216.999 100.991 218.726 102.996 220.039 102.996C220.454 102.996 221.214 102.65 221.698 102.166C222.251 101.613 222.527 101.613 222.527 102.097C222.527 102.996 220.938 103.687 218.865 103.687C215.409 103.687 213.612 98.7109 216.1 95.9466C217.344 94.5644 220.454 94.288 221.698 95.5319ZM227.365 98.3654C227.365 100.369 227.71 102.374 228.194 102.857C228.816 103.479 228.401 103.687 226.328 103.687C224.255 103.687 223.84 103.479 224.462 102.857C225.499 101.821 225.568 97.0523 224.6 96.4303C223.564 95.8084 224.462 94.7026 226.052 94.7026C227.157 94.7026 227.365 95.1864 227.365 98.3654ZM232.893 96.0157C233.239 96.7759 233.585 98.4345 233.585 99.6784C233.585 100.991 233.93 102.374 234.414 102.857C235.036 103.479 234.621 103.687 232.548 103.687C230.475 103.687 230.06 103.479 230.682 102.857C232.755 100.784 230.889 94.4262 228.678 95.8084C228.125 96.0848 228.056 96.0157 228.332 95.5319C229.093 94.2189 232.064 94.5644 232.893 96.0157ZM252.935 96.0157C253.28 96.7759 253.626 98.6418 253.626 100.231C253.626 101.959 253.902 102.926 254.317 102.65C254.732 102.443 255.008 102.512 255.008 102.926C255.008 103.272 253.211 103.548 251.069 103.479C247.475 103.341 247.061 103.203 246.853 101.752C246.646 100.508 247.13 99.9548 249.065 99.1947C251.553 98.158 252.244 96.6377 250.723 95.6702C250.309 95.3937 249.618 95.6702 249.134 96.2921C248.097 97.6743 246.715 97.8125 246.715 96.5686C246.715 95.1173 247.475 94.7026 249.894 94.7026C251.483 94.7026 252.451 95.1173 252.935 96.0157ZM269.659 95.5319C269.175 96.1539 269.244 97.1214 270.004 98.8491L270.972 101.268L272.008 98.9182C272.769 97.1905 272.769 96.3612 272.216 95.6702C271.594 94.8409 272.008 94.7026 274.635 94.7026H277.814V98.3654C277.814 100.369 278.159 102.374 278.643 102.857C279.265 103.479 278.919 103.687 276.846 103.687C274.635 103.687 274.289 103.548 274.98 102.719C276.017 101.544 275.74 96.6377 274.635 96.2921C274.22 96.1539 273.252 97.6743 272.492 99.6784C271.248 102.857 269.521 104.931 269.521 103.134C269.521 102.581 267.586 98.0198 266.203 95.1864C266.065 94.91 266.964 94.7026 268.138 94.7026C269.866 94.7026 270.212 94.91 269.659 95.5319ZM285.415 95.7393C285.415 96.6377 285.139 96.7068 283.964 96.0157C282.858 95.4628 282.306 95.4628 281.684 96.0848C281.131 96.7068 281.131 97.0523 281.822 97.2596C282.306 97.4669 283.549 98.2962 284.517 99.1255C286.037 100.439 286.176 100.853 285.484 102.166C284.31 104.378 279.887 104.378 279.887 102.166C279.887 100.715 279.956 100.715 281.269 101.959C282.375 102.926 282.858 103.065 283.48 102.443C284.171 101.752 283.826 101.13 282.098 99.5402C279.679 97.3287 279.472 96.7759 280.716 95.5319C281.96 94.288 285.415 94.4953 285.415 95.7393ZM295.574 96.223C297.578 98.0889 297.578 100.024 295.643 102.097C292.672 105.276 287.489 103.41 287.489 99.1947C287.489 95.0482 292.395 93.1823 295.574 96.223ZM308.428 95.9466C308.29 96.6377 308.497 98.0889 308.912 99.1947L309.741 101.268L310.709 98.9182C311.469 97.1905 311.469 96.3612 310.916 95.6702C310.294 94.91 310.502 94.7026 312.022 94.7026C313.404 94.7026 313.75 94.91 313.266 95.5319C312.851 96.0157 311.745 98.5727 310.709 101.268C309.672 103.894 308.497 106.52 308.083 106.935C307.184 108.04 305.457 108.11 305.457 107.073C305.457 106.658 305.94 106.52 306.493 106.727C307.184 107.004 307.806 106.52 308.221 105.414C308.705 104.101 308.428 102.857 307.115 99.8166C306.148 97.6743 305.18 96.0848 304.973 96.3612C304.766 96.5686 304.075 96.4303 303.591 95.9466C302.831 95.3246 302.416 95.3246 301.932 96.1539C301.034 97.5361 301.172 101.89 302.139 102.857C302.761 103.479 302.347 103.687 300.274 103.687C298.2 103.687 297.786 103.479 298.408 102.857C299.444 101.821 299.513 97.0523 298.546 96.4303C296.956 95.4628 298.822 94.8409 303.66 94.7717C308.221 94.7026 308.774 94.8409 308.428 95.9466ZM105.735 97.1214C105.735 97.7434 101.658 99.5402 100.206 99.5402C98.4787 99.5402 98.4096 98.5036 100.068 97.5361C101.243 96.845 105.735 96.4995 105.735 97.1214ZM99.5153 103.618C99.5153 103.963 98.8933 104.447 98.1331 104.654C97.373 104.861 96.129 105.276 95.3688 105.483C93.8485 105.898 93.3647 104.032 94.8851 103.479C96.3363 102.857 99.5153 102.996 99.5153 103.618ZM54.7334 105.553C56.2538 106.935 56.3229 109.077 54.8025 110.736C53.4204 112.256 51.6236 112.325 50.1723 110.874C48.721 109.492 48.7901 107.211 50.2414 105.622C51.6236 104.101 53.0748 104.032 54.7334 105.553ZM93.2265 108.455C94.8851 109.492 93.2956 110.597 90.1166 110.597C86.7995 110.597 86.1775 109.837 88.6654 108.662C90.5313 107.764 91.9825 107.695 93.2265 108.455ZM36.9036 111.427C37.4565 112.394 37.3873 112.878 36.4889 113.776C34.4157 115.85 31.3059 113.154 33.1718 110.874C34.2775 109.63 35.867 109.837 36.9036 111.427ZM86.1084 114.329C87.3523 115.297 87.3523 115.366 85.5555 116.057C84.5189 116.472 83.275 116.679 82.7912 116.541C82.3074 116.333 80.9944 116.057 79.8196 115.781C77.8154 115.366 77.8154 115.297 79.0594 114.329C80.7871 113.085 84.3807 113.085 86.1084 114.329ZM61.5751 118.959C64.2703 119.858 67.0346 122.138 67.0346 123.451C67.0346 124.695 64.6158 125.317 62.128 124.765C59.7092 124.212 55.2863 120.618 55.2863 119.167C55.2863 117.992 58.327 117.923 61.5751 118.959ZM76.7788 118.89C79.1976 120.203 78.3683 121.655 75.1202 121.655C72.2868 121.655 69.1078 120.203 69.1078 118.821C69.1078 117.992 75.0511 117.992 76.7788 118.89Z" fill="#5A70AD"/>
<path d="M154.801 49.6442C152.797 51.6484 152.728 51.9248 152.728 58.0754C152.728 65.539 153.696 68.096 156.944 68.7871C163.025 70.1693 167.31 60.3559 163.854 52.8923C162.403 49.7133 161.367 48.6767 158.81 48.0547C157.289 47.6401 156.529 47.9856 154.801 49.6442Z" fill="#5A70AD"/>
<path d="M200.758 48.4004C198.892 49.0915 197.855 50.4045 197.303 52.7542L196.819 54.6201H202.417H208.014L207.6 52.6851C207.185 50.681 204.352 47.7093 202.969 47.7784C202.486 47.7784 201.518 48.0549 200.758 48.4004Z" fill="#5A70AD"/>
<path d="M258.601 96.2228C257.427 97.3977 257.565 101.268 258.809 102.304C261.089 104.239 263.301 100.646 261.919 97.1903C261.228 95.2553 259.915 94.9098 258.601 96.2228Z" fill="#5A70AD"/>
<path d="M194.884 98.4342C194.884 101.475 196.336 103.825 197.303 102.304C197.51 101.89 198.063 101.751 198.409 101.959C199.376 102.581 199.169 97.1902 198.201 96.2227C197.718 95.739 196.819 95.3934 196.128 95.3934C195.092 95.3934 194.884 95.9463 194.884 98.4342Z" fill="#5A70AD"/>
<path d="M178.506 95.8773C176.847 96.4993 177.607 97.4668 179.75 97.4668C181.616 97.4668 181.823 97.3286 181.063 96.4302C180.164 95.3245 179.888 95.2553 178.506 95.8773Z" fill="#5A70AD"/>
<path d="M217.897 95.8773C216.239 96.4993 216.999 97.4668 219.141 97.4668C221.007 97.4668 221.214 97.3286 220.454 96.4302C219.556 95.3245 219.279 95.2553 217.897 95.8773Z" fill="#5A70AD"/>
<path d="M249.894 99.7473C248.995 100.369 248.719 101.129 249.064 101.959C249.479 103.134 249.617 103.134 250.585 102.166C251.207 101.544 251.552 100.577 251.414 99.9546C251.207 98.918 251.069 98.918 249.894 99.7473Z" fill="#5A70AD"/>
<path d="M290.806 96.1541C289.216 97.0525 289.216 100.439 290.667 101.959C292.05 103.341 293.086 102.996 294.33 100.784C295.229 99.1948 295.229 98.7802 294.192 97.1907C292.879 95.1866 292.533 95.1175 290.806 96.1541Z" fill="#5A70AD"/>
</g>
<defs>
<clipPath id="clip0_176_180">
<rect width="345.539" height="133" fill="white"/>
</clipPath>
</defs>
</svg>
