<svg width="160" height="158" viewBox="0 0 160 158" fill="none" xmlns="http://www.w3.org/2000/svg">
<path d="M19.6717 57.7435C24.052 54.8557 28.7182 54.0434 34.3019 55.2724C30.7872 60.2827 26.4656 62.6632 21.3942 63.4192C16.5548 64.1407 15.8629 64.6875 15.5779 70.2072C15.4555 72.5786 15.5575 74.9633 15.5575 78.0448C19.7183 70.4776 25.2522 65.8306 32.9597 64.6893C34.1532 71.9053 25.9411 80.2913 15.7075 82.0151C17.076 90.0825 19.902 97.4084 25.0187 103.806C22.9955 93.7136 26.5701 85.9573 33.1233 79.2097C37.441 87.9118 35.2713 106.379 26.1672 107.432C31.4903 112.46 36.8134 117.489 42.4786 122.872C43.0693 123.331 43.3177 123.436 43.5661 123.54C43.3861 123.093 43.2061 122.645 43.0261 122.197C41.0222 116.069 39.2845 109.843 42.2862 103.587C43.8532 100.321 46.0143 97.3824 48.1545 93.8926C54.5324 104.541 51.9176 113.958 46.9296 122.988C45.5466 125.492 45.9094 126.199 48.004 127.367C50.3969 128.703 52.5913 130.447 55.5398 132.473C54.5446 119.795 61.6417 113.824 70.2186 108.733C72.1827 117.699 72.4947 126.776 59.0732 134.232C61.5015 137.393 63.8329 140.783 66.5497 143.769C67.4838 144.796 69.3513 145.015 70.8416 145.264C82.2964 147.179 93.3348 145 104.245 140.94C104.298 140.685 104.238 140.745 104.238 140.745C109.503 138.193 114.769 135.64 120.247 132.985C115.844 128.018 115.651 117.918 121.566 110.081C124.48 116.727 124.01 123.113 121.256 129.907C120.986 130.726 120.956 131.154 120.926 131.583C121.252 131.333 121.578 131.083 121.903 130.833C124.886 127.847 127.868 124.862 130.614 121.675C130.378 121.472 130.316 121.541 130.316 121.541C132.31 119.705 134.212 117.735 136.317 116.06C141.092 112.259 138.486 106.394 139.921 101.645C141.597 96.0989 144.817 92.7943 150.15 90.9919C150.682 96.2819 150.868 101.291 148.086 105.425C145.462 109.323 142.095 112.645 138.754 116.573C141.807 116.573 144.575 116.573 147.825 116.573C144.579 121.1 137.676 123.24 134.597 120.292C133.855 121.414 133.121 122.625 132.289 123.752C131.572 124.722 130.743 125.597 129.783 126.728C133.175 126.496 136.124 126.295 139.264 126.08C137.982 128.911 133.558 130.853 130.266 130.13C129.646 129.994 129.197 128.961 128.37 127.992C126.484 129.639 124.112 131.711 121.981 133.996C122.223 134.209 122.3 134.153 122.039 133.9C121.183 134.376 120.586 135.105 120.016 135.793C120.042 135.752 120.106 135.68 120.106 135.68C118.244 136.516 116.302 137.193 114.533 138.214C101.582 145.685 87.6991 148.408 73.1333 147.648C71.6055 147.568 70.0971 147.061 68.3203 146.7C68.1699 150.102 68.0308 153.249 67.878 156.707C57.35 152.768 54.3686 145.023 55.7235 134.706C53.8812 133.68 52.2167 132.754 50.3442 131.712C45.2645 136.149 39.1734 137.028 32.7804 136.533C32.1027 136.48 31.3458 136.259 30.7987 135.85C28.7502 134.319 26.7737 132.677 24.7702 131.076C27.0491 129.726 29.2048 127.707 31.6377 127.191C34.8228 126.516 38.2268 127.027 41.9507 127.308C42.9827 127.622 43.6007 127.656 45.0153 127.734C43.7794 127.078 43.2871 126.816 42.7948 126.555C39.0109 123.12 35.227 119.685 31.405 116.216C20.1632 121.746 10.2601 118.498 7.30141 110.616C13.4061 108.932 19.3473 108.872 25.6472 111.387C26.4175 111.677 26.8173 111.709 27.2171 111.741C26.9838 111.392 26.7506 111.043 26.5173 110.694C25.6501 109.459 24.5161 108.347 23.9626 106.968C21.7626 101.484 17.6679 99.2806 12.4367 98.6883C7.71704 98.154 4.41844 94.8896 0.94959 91.8404C0.740845 90.4456 0.740845 88.8236 1.02036 87.1173C6.68007 85.5045 11.4219 86.6783 15.734 91.6629C14.9598 87.8753 14.3512 84.8981 13.7272 81.8453C5.94928 77.9825 5.13109 77.0392 2.0673 68.6334C1.96663 68.3572 1.19807 68.3609 0.740845 68.2342C0.740845 66.6122 0.740845 64.9902 0.740845 63.0206C6.17508 60.7026 10.5904 66.4031 13.467 72.6819C13.976 69.3377 14.4389 66.6051 14.756 63.8531C14.7996 63.4744 14.198 62.8393 13.7624 62.5938C8.05174 59.3763 6.04639 54.0739 8.13055 46.4385C8.29644 45.8308 8.24521 45.1549 8.32955 44.0609C14.0303 46.4131 15.3374 51.5851 16.4269 57.1538C17.6188 54.4377 18.66 52.065 19.7081 49.6767C14.4369 45.6145 12.7203 39.8387 15.1607 34.1762C20.0229 35.1019 20.5953 36.3314 20.8098 46.9107C22.1902 44.4087 23.4254 42.4047 24.3924 40.2615C24.6536 39.6826 24.2629 38.5841 23.8973 37.8903C21.2918 32.9469 21.538 28.3742 25.5898 23.6954C26.5106 27.7391 27.2604 31.0316 28.0345 34.4312C30.0032 32.2234 32.1101 30.4934 31.3923 25.8228C30.5136 20.1061 33.3572 14.9238 37.8839 10.6551C40.2158 16.3465 39.7738 21.503 36.9418 26.447C39.8124 27.0335 42.4537 27.5732 45.0951 28.1128C45.1233 28.5625 45.1515 29.0122 45.1798 29.4619C42.5539 30.2043 39.644 32.0944 37.3626 31.445C32.9127 30.1784 31.6397 33.0511 29.7386 36.3602C33.0047 36.3602 36.0984 36.3602 39.192 36.3602C35.7323 40.6512 31.7137 42.1079 26.7177 40.7402C25.9689 41.9772 25.1561 43.3197 24.1303 45.0142C27.7298 45.1725 31.214 42.8493 34.3238 45.8174C30.9401 49.1157 27.6427 51.2152 23.1034 50.8669C19.8304 50.6157 20.1616 54.2479 19.0208 56.8229C18.7548 57.6365 18.7248 58.0653 18.6948 58.494C19.0205 58.2438 19.3461 57.9937 19.6717 57.7435ZM138.256 118.143C138.323 117.678 138.39 117.213 138.458 116.747C138.248 117.062 138.038 117.378 138.256 118.143ZM104.13 -0.88269C106.033 2.34266 107.611 5.56801 109.271 8.95823C108.195 9.33252 107.537 9.56154 106.91 9.77992C110.659 11.313 114.381 12.8354 118.526 14.5304C116.149 10.0811 113.773 6.17684 117.497 1.87132C121.607 3.94511 124.556 10.6169 123.593 15.5719C123.412 16.5024 123.931 17.9869 124.609 18.6402C127.032 20.9756 129.663 23.0634 133.044 25.9524C130.431 19.988 129.295 14.8409 131.443 8.80882C137.102 14.0375 139.894 20.0174 139.933 27.3387C139.941 28.7841 138.904 30.225 138.403 31.6893C138.178 32.3466 137.759 33.2367 137.987 33.7138C139.753 37.4091 141.656 41.0293 143.679 44.9902C143.804 40.103 143.108 35.0117 147.549 31.4022C152.42 39.064 151.228 46.6533 148.181 54.2711C147.951 54.8452 147.066 55.1176 145.961 55.9026C146.167 57.4377 146.486 59.8216 146.847 62.5099C150.49 59.3226 153.776 55.4181 158.994 55.5752C159.744 66.0282 153.025 77.3962 142.453 80.888C141.68 76.1193 142.645 71.6927 144.489 67.4752C145.604 64.9271 145.407 63.9253 142.478 63.3619C135.273 61.9757 128.555 59.3465 124.553 52.0166C123.722 50.4961 123.076 48.8603 122.308 47.1988C130.725 45.9376 136.639 49.0274 144.895 59.3655C143.151 52.9123 141.695 47.5244 140.21 42.0304C134.522 43.1987 129.178 44.6732 124.093 41.8108C121.245 40.2076 118.675 38.0371 115.321 35.6542C123.285 31.9872 129.761 33.3636 137.127 37.135C136.026 34.8399 135.491 33.4474 134.732 32.2123C133.876 30.8176 132.819 29.5644 131.94 28.3726C128.462 28.9485 124.948 30.156 121.522 29.9186C118.219 29.6898 115.007 27.9686 110.837 26.6025C116.218 22.4657 121.181 22.3175 126.704 23.0168C124.78 21.5951 122.946 19.9862 120.885 18.8508C120.137 18.4392 118.693 18.8749 117.832 19.4119C113.445 22.1454 109.033 21.9777 104.539 20.337C104.429 19.8911 104.32 19.4452 104.211 18.9992C107.758 17.6354 111.305 16.2716 114.421 15.0732C113.833 14.7816 112.39 14.2136 111.089 13.3871C109.22 12.199 107.851 12.4693 106.284 14.1646C103.114 17.5918 99.2398 18.0468 94.7393 16.7782C97.3196 12.4901 100.907 11.5671 104.927 11.346C103.025 10.7179 101.152 9.8252 99.2077 9.57168C98.2128 9.44198 96.9127 10.2309 96.0553 10.9969C93.5559 13.2299 90.9745 14.8816 87.0004 13.8491C88.5193 11.7582 89.8497 9.92677 90.7494 8.68821C88.2643 6.98129 85.3038 5.13549 82.5867 2.9429C81.9491 2.42838 82.1341 0.741484 81.7148 -0.644369C83.0014 -0.88269 84.5139 -0.88269 86.1294 -0.609348C87.0867 0.0115894 87.9707 0.293674 88.7898 0.719254C91.1043 1.92177 94.1817 2.57992 95.5012 4.56602C97.3702 7.37931 99.3439 8.18641 102.274 8.17103C102.988 8.4546 103.606 8.48882 105.021 8.56718C103.796 7.91648 103.298 7.65208 102.628 7.17416C101.394 4.34619 100.331 1.73175 99.2683 -0.88269C100.781 -0.88269 102.293 -0.88269 104.13 -0.88269ZM136.822 30.2777C136.702 30.6464 136.573 31.0129 136.485 31.3903C136.48 31.4102 136.814 31.5218 136.991 31.5908C137.06 31.3165 137.129 31.0422 136.822 30.2777ZM136.738 36.7932C136.963 37.1297 137.189 37.4663 137.414 37.8029C137.356 37.3437 137.298 36.8845 136.738 36.7932Z" fill="#979BA7"/>
<path d="M83.3159 158.801C82.5158 158.187 82.0909 157.545 81.6011 156.966C79.5887 154.585 77.5565 152.224 75.1766 149.44C79.6276 147.511 83.416 148.552 86.9801 150.072C89.2282 151.031 91.308 152.709 93.1056 154.482C93.7924 155.159 93.482 156.999 93.8544 158.555C90.6089 158.801 87.1351 158.801 83.3159 158.801Z" fill="#979BA7"/>
<path d="M73.2845 34.0095C70.4758 35.5618 67.6671 37.1141 64.4992 38.8648C67.8146 43.506 68.8903 47.8996 66.648 53.7803C64.6927 50.0875 62.973 46.8395 61.3405 43.7563C59.9712 46.1637 58.1352 49.3918 56.2207 52.7578C60.3229 55.374 63.0423 58.8089 62.944 63.9903C62.6083 64.3281 62.2726 64.6658 61.9369 65.0036C59.5811 62.7266 57.2252 60.4497 54.8172 58.1223C54.5256 60.8732 54.1647 64.2777 53.9078 66.7007C57.8743 68.8204 61.2326 70.615 64.5909 72.4096C64.3632 73.0387 64.1355 73.6679 63.9078 74.2971C60.8813 73.4129 57.8549 72.5288 54.7131 71.611C55.6304 74.0461 56.7614 77.049 57.9647 80.2436C62.2189 78.5369 66.4061 75.8239 71.0511 81.4785C67.1386 82.2552 63.9192 82.8943 60.2449 83.6238C61.9431 85.5564 63.9592 87.929 66.0836 90.1841C66.4049 90.5252 67.4192 90.606 67.7943 90.3224C71.6237 87.4269 75.695 87.9559 80.0003 89.2573C78.3404 94.1958 74.4657 93.8443 70.5468 94.0803C75.178 94.7966 80.4096 93.6186 84.0476 99.8462C79.8473 98.9857 76.4623 98.2922 72.791 97.54C72.9245 98.6622 73.1311 100.399 73.3698 102.406C69.6187 102.094 67.257 99.9238 66.85 96.5987C66.5342 94.0186 65.9135 92.4135 63.9218 90.9986C62.4862 89.9788 61.4478 88.316 60.186 86.8876C60.0086 89.0622 59.8287 91.2687 59.6487 93.4752C59.2466 93.5354 58.8446 93.5956 58.4426 93.6558C57.7288 91.3439 56.1905 88.9117 56.4656 86.7442C57.1266 81.5339 54.5483 77.6144 53.2527 73.7452C51.7342 74.954 50.1231 76.2365 48.6114 77.4398C47.7018 72.9795 48.9863 69.9121 52.4094 68.5647C52.6217 64.9188 52.8322 61.3024 53.0356 57.809C50.2714 59.1288 47.2647 60.5644 44.1562 62.0486C43.9293 57.9514 46.9689 53.2042 50.4839 53.3389C54.0128 53.4742 55.3288 51.8967 56.3121 48.8467C56.7723 47.4193 57.6752 46.1562 58.2062 45.1449C54.8939 44.8936 51.5452 44.6394 48.1966 44.3852C48.216 43.9486 48.2354 43.5119 48.2549 43.0753C51.8232 41.6625 55.1717 38.8677 59.3659 41.5513C59.8278 41.8469 61.211 40.9651 61.8841 40.3001C63.1649 39.0345 64.2413 37.531 65.2614 36.2971C61.7666 35.4583 57.8626 34.5212 53.1972 33.4014C58.2811 29.6527 62.9155 30.0918 67.9586 33.897C70.9429 32.6732 73.8068 31.4987 75.904 30.6387C72.9027 29.0519 69.2521 27.1217 65.6015 25.1916C65.7795 24.7675 65.9575 24.3434 66.1355 23.9193C70.4868 23.297 74.5778 23.826 77.9064 27.458C79.3329 29.0146 80.5999 29.5538 82.9952 29.5885C88.6576 29.6707 94.3015 31.2253 99.9528 32.1845C99.91 32.7545 99.8672 33.3244 99.8245 33.8943C98.5913 33.8355 97.3582 33.7768 96.3316 33.7278C94.8493 36.287 93.6914 39.5499 91.5371 41.6209C89.6847 43.4018 86.695 43.8221 83.9269 44.9596C84.2831 39.1532 85.5238 36.95 91.3185 31.5589C86.8301 31.5589 82.8652 31.5589 78.4567 31.5589C79.045 37.4877 78.0021 42.5716 72.9517 46.3552C71.0882 42.2069 71.3696 38.5725 73.8963 34.6161C74.3421 33.9632 74.4397 33.6968 74.5372 33.4304C74.1197 33.6234 73.7021 33.8165 73.2845 34.0095ZM98.0519 122.408C97.1038 129.357 91.8163 139.875 83.9582 142.618C80.2103 128.84 86.2981 117.607 98.275 108.035C98.275 113.272 98.275 117.711 98.0519 122.408Z" fill="#979BA7"/>
<path d="M104.326 140.652C103.449 138.879 102.203 137.244 101.7 135.379C99.7613 128.196 103.901 116.521 109.777 112.001C113.512 119.142 112.445 130.581 104.349 140.453C104.238 140.745 104.298 140.684 104.326 140.652ZM113.511 94.6704C106.978 101.161 95.5764 104.252 89.2375 100.876C92.4915 99.4571 95.212 97.8823 98.1179 97.0765C107.299 94.5303 114.972 89.8474 119.837 80.7656C119.949 80.5568 120.191 80.3861 120.408 80.2963C120.621 80.208 120.879 80.2457 121.591 80.1932C120.576 86.1356 117.461 90.4931 113.511 94.6704ZM72.0925 139.724C69.3108 138.69 67.389 137.07 68.2264 133.93C68.7254 132.06 69.6048 130.011 70.9094 128.753C72.7572 126.971 75.2742 127.421 76.6147 129.54C77.7185 131.285 78.7043 133.928 78.2536 135.75C77.8505 137.379 75.4422 138.472 73.849 139.698C73.5243 139.947 72.8893 139.733 72.0925 139.724ZM151.08 87.0964C150.351 84.0745 148.759 81.382 150.784 78.5861C156.588 80.0535 159.612 85.7507 159.094 94.4032C155.41 93.3111 152.861 90.9175 151.08 87.0964ZM130.41 121.439C128.338 120.288 126.488 115.13 127.532 111.866C128.506 108.819 130.137 106.014 131.568 102.909C135.758 106.908 135.595 113.667 131.781 118.772C131.268 119.459 130.844 120.223 130.348 121.246C130.316 121.541 130.378 121.472 130.41 121.439ZM138.55 90.4628C138.878 92.4054 139.191 94.0121 139.524 95.7204C133.489 95.4631 130.206 89.7282 130.461 80.4507C135.365 81.619 137.925 84.9212 138.55 90.4628ZM45.1564 15.8049C49.912 11.6459 54.8342 13.4716 59.7704 14.3299C57.1278 20.3383 48.3484 21.0833 43.6189 18.4932C44.0319 17.6109 44.4467 16.7245 45.1564 15.8049ZM94.1035 25.4749C94.707 27.0058 95.275 28.2328 95.9066 29.5971C89.152 30.2167 84.2791 26.5489 83.0272 20.0922C88.0136 18.5839 91.2596 21.314 94.1035 25.4749ZM107.033 149.396C108.077 150.634 108.853 151.752 109.633 152.876C104.526 156.654 98.6131 155.07 94.8824 149.017C98.897 146.959 102.841 147.45 107.033 149.396ZM129.415 66.4824C131.627 64.4529 133.921 65.0159 135.486 66.4162C136.538 67.3563 137.219 69.8203 136.853 71.2429C136.478 72.6979 134.761 74.4089 133.376 74.7266C131.996 75.0433 129.303 74.1494 128.958 73.11C128.338 71.2402 129.042 68.8651 129.415 66.4824ZM76.2983 1.94085C76.3026 9.80084 73.0023 15.7143 68.152 16.4639C68.2229 10.0905 70.5884 4.99429 75.0314 0.953792C75.1761 0.822236 75.8609 1.3738 76.2983 1.94085ZM45.9331 43.6784C47.7457 46.9313 46.2089 49.4114 44.0963 50.3544C42.6666 50.9925 39.4106 50.0417 38.7433 48.7493C37.8836 47.0844 37.9917 43.4497 39.1242 42.309C41.0396 40.3796 44.0137 40.1984 45.9331 43.6784ZM43.7395 86.5116C44.3516 88.6056 45.028 90.7218 44.7719 92.6992C44.675 93.4479 42.295 94.5363 41.1935 94.2826C39.8326 93.9691 38.2874 92.6593 37.6417 91.3241C37.1621 90.3323 37.5877 87.807 38.3175 87.3907C39.764 86.5654 41.6994 86.7256 43.7395 86.5116ZM114.85 141.323C117.307 141.839 119.439 142.355 121.796 142.925C118.619 147.901 112.564 148.065 107.582 143.239C110.173 142.524 112.349 141.924 114.85 141.323ZM106.724 32.4849C110.191 32.443 110.811 34.7594 110.252 37.2451C109.973 38.4848 108.188 40.3714 107.377 40.2156C105.805 39.9139 103.638 38.6826 103.169 37.2787C102.352 34.836 103.864 32.9646 106.724 32.4849ZM124.578 95.681C128.359 92.8819 130.96 93.6727 131.131 97.3132C131.242 99.6933 130.616 101.435 128.084 101.592C125.444 101.756 124.334 100.28 124.453 97.5549C124.476 97.0333 124.467 96.5101 124.578 95.681ZM51.1996 137.05C52.8323 139.119 53.1317 141.321 51.3549 142.669C50.2174 143.533 48.0363 143.654 46.7053 143.083C45.8464 142.715 45.0522 140.328 45.3228 139.13C46.0666 135.837 48.6484 136.357 51.1996 137.05ZM57.7945 6.00942C57.4602 2.75428 57.8515 0.451809 61.3567 0.703061C63.8892 0.884587 64.8071 2.58746 64.3605 4.94239C64.1579 6.0106 63.0359 7.63465 62.2828 7.66575C60.8079 7.72667 59.2992 6.84717 57.7945 6.00942ZM122.189 134.244C125.306 133.182 128.414 132.45 131.156 135.373C128.714 138.815 124.011 139.182 120.065 136.009C120.106 135.68 120.042 135.751 120.256 135.716C121.08 135.172 121.69 134.662 122.3 134.153C122.3 134.153 122.223 134.209 122.189 134.244Z" fill="#979BA7"/>
</svg>
