<svg width="261" height="97" viewBox="0 0 261 97" fill="none" xmlns="http://www.w3.org/2000/svg">
<g clip-path="url(#clip0_176_72)">
<rect width="240" height="108" fill="#5A70AD"/>
<path d="M0 -9.3772V57.9608H2.5578C4.5936 57.9608 5.481 58.274 6.7338 59.318C8.5086 60.7796 8.613 60.5708 7.7778 57.2822C7.3602 55.5074 6.786 54.8288 4.959 53.6804C3.7062 52.9496 2.2968 51.5402 1.827 50.6528C0.9396 48.9824 0.6264 46.2158 1.2006 45.6416C1.8792 44.963 5.0112 47.3642 5.9508 49.2434C6.4728 50.3396 6.9426 51.1748 7.047 51.0704C7.0992 50.966 7.3602 49.5566 7.5168 47.8862C7.83 45.4328 7.7778 44.9108 7.0992 44.9108C6.0552 44.9108 4.2804 42.5096 3.915 40.526C3.7062 39.6386 3.8628 38.177 4.176 37.3418L4.8024 35.7758L6.0552 37.2374C6.786 38.0726 7.6212 39.743 7.9344 40.9958L8.5608 43.2926L10.4922 39.2732C13.7808 32.435 13.9374 32.3306 17.3826 32.0696C19.1574 31.913 20.358 32.0174 20.358 32.3306C20.358 33.218 18.3744 34.001 16.1298 34.0532C14.6682 34.0532 13.833 34.3664 13.311 35.1494C12.1626 36.8198 12.3192 36.9242 15.138 36.6632C16.5996 36.5588 17.748 36.5588 17.748 36.7676C17.748 37.4984 14.2506 39.1688 12.7368 39.1688C11.2752 39.1688 10.962 39.4298 10.2312 41.2568C9.1872 43.8668 9.1872 44.18 10.179 43.3448C11.3274 42.4052 15.4512 41.309 16.6518 41.6222C17.5914 41.8832 17.6436 42.0398 17.1216 42.7184C16.1298 43.919 12.528 45.4328 10.5966 45.4328C9.7092 45.4328 8.8218 45.6416 8.6652 45.9026C8.5086 46.1636 8.2476 48.095 8.091 50.183C7.83 53.4194 7.8822 53.8892 8.4564 53.054C10.3356 50.2874 12.267 48.5648 14.6682 47.573C16.1298 46.8944 17.4348 46.529 17.5914 46.6334C17.6958 46.79 17.487 47.6774 17.0694 48.6692C16.1298 50.966 13.05 53.576 10.44 54.359C7.9344 55.142 7.7778 56.186 9.5526 60.5708C11.1708 64.538 13.5198 67.7744 17.6958 71.9504C20.9322 75.1868 28.71 80.9288 29.8062 80.9288C30.0672 80.9288 30.276 79.8848 30.276 78.6842C30.276 75.9176 32.3118 72.7856 35.5482 70.6454C37.323 69.497 37.7406 69.3926 38.1582 70.019C39.933 72.8378 36.801 79.3106 32.8338 80.9288C31.9986 81.2942 31.32 81.6074 31.32 81.6596C31.32 81.7118 32.5728 83.069 34.0866 84.7394L36.9054 87.7148L43.1172 87.767C48.6504 87.8192 49.0158 87.8714 46.458 88.289C44.892 88.55 42.021 88.6022 40.0896 88.4456L36.54 88.1324V90.5336C36.54 91.8386 36.3312 92.9348 36.1224 92.9348C35.1828 92.9348 32.0508 90.1682 31.2156 88.6022C30.7458 87.6626 30.3282 85.8356 30.276 84.4784C30.276 82.286 30.1194 81.9206 28.7622 81.242C27.405 80.5112 27.0918 80.5634 25.056 81.5552C21.9762 83.1212 18.009 83.33 15.7122 82.1294C14.7204 81.6074 13.833 80.9288 13.6764 80.5634C13.1544 78.8408 20.9844 77.4836 23.5944 78.893C25.839 80.0936 24.795 78.9452 20.88 75.8654C16.8606 72.7334 16.7562 72.629 14.8248 73.2032C13.7286 73.4642 11.484 73.6208 9.7614 73.5164C7.3602 73.3076 6.4728 72.9944 5.3244 71.8982C4.1238 70.6976 4.0194 70.3844 4.698 69.9668C5.8986 69.1838 10.5444 69.3404 12.9978 70.2278C15.1902 70.9586 15.7644 70.6454 14.3028 69.3926C13.833 69.0272 12.789 67.7222 12.006 66.5216C10.6488 64.5902 10.179 64.3292 7.308 63.755C4.8546 63.2852 3.7062 62.711 2.088 61.145L0 59.1614V121.749V184.285H130.5H261V53.7848V-76.7152H130.5H0V-9.3772ZM57.0546 14.3738C58.7772 16.1486 59.1948 17.7668 57.942 17.7668C56.637 17.7668 54.288 15.3656 54.288 14.1128C54.288 12.7034 55.4364 12.8078 57.0546 14.3738ZM48.6504 14.1128C49.6944 14.426 50.9994 15.209 51.5736 15.8876C52.2 16.7228 53.6616 17.4014 55.7496 17.9756C57.4722 18.3932 60.4998 19.4894 62.4312 20.3768C64.3626 21.212 65.9808 21.9428 66.0852 21.9428C66.1896 21.9428 65.6676 21.3164 64.989 20.5856C63.423 18.9152 62.9532 17.558 63.3708 15.9398C64.1016 13.121 66.9726 16.9838 66.7638 20.429C66.6072 22.3604 66.7638 22.6214 69.165 24.4484C72.558 27.0062 75.3246 30.7124 77.256 35.2538L78.7698 38.9078L78.4566 36.2978C78.2478 34.4708 78.4566 33.0614 79.083 31.5998C79.866 29.6162 79.9704 29.564 80.7012 30.5036C81.8496 32.1218 82.1628 34.8884 81.4842 37.916C80.7534 41.1524 80.0748 41.831 79.344 40.1084C78.9786 39.221 78.9264 39.6386 79.1352 41.7788C79.5528 46.1114 79.6572 46.2158 81.432 44.4932C83.3112 42.614 86.0778 41.5178 86.4432 42.4574C86.8608 43.5536 85.2426 47.9906 83.781 49.922C82.215 52.01 78.6132 54.5678 77.8824 54.098C77.5692 53.9414 77.5692 52.9496 77.8824 51.5924C79.1352 45.3806 79.1874 45.6416 76.734 45.224C72.8712 44.5976 69.165 42.092 67.5468 39.0122L66.7638 37.6028H68.643C71.1486 37.6028 74.4894 39.3776 76.8906 41.9876L78.9264 44.1278L78.5088 42.0398C77.8302 38.3336 76.3686 34.7318 75.6378 34.8884C75.2202 34.9928 73.4976 35.0972 71.7228 35.0972C68.4342 35.0972 66.8682 34.5752 64.8324 32.7482C63.3186 31.3388 64.1016 30.8168 67.7556 30.8168C70.47 30.8168 72.9234 31.7042 74.8026 33.3224C76.0032 34.3664 75.951 33.6878 74.5416 31.391C72.6102 28.1546 71.514 27.1628 70.4178 27.6848C69.1128 28.4156 64.2582 28.3112 62.379 27.476L60.813 26.7974L62.0136 26.171C63.5796 25.3358 67.9122 25.3358 69.4782 26.171L70.731 26.7974L69.7392 25.649C69.165 25.0226 67.9122 24.0308 66.9204 23.4044C65.1978 22.3604 65.0934 22.3082 63.5796 23.2478C61.9614 24.1874 58.2552 24.5006 57.5244 23.822C56.7936 23.0912 59.1948 21.9428 61.4916 21.9428C64.206 21.9428 63.9972 21.2642 60.8652 20.2202C58.725 19.4894 58.5162 19.4894 57.5766 20.4812C56.2716 21.734 51.939 22.4648 52.3044 21.3686C52.4088 20.951 53.6094 20.2724 54.9666 19.8026L57.42 18.9674L55.1754 18.4454C53.0874 17.9756 52.722 18.08 51.4692 19.1762C50.0598 20.3768 48.024 20.7944 48.024 19.907C48.024 19.646 48.6504 18.9152 49.3812 18.341L50.7906 17.2448H49.4856C48.0762 17.2448 44.8398 15.3134 44.4744 14.2172C44.2134 13.4342 45.9882 13.382 48.6504 14.1128ZM34.6608 14.948C35.0784 16.0442 34.0866 17.2448 32.7816 17.2448C31.6854 17.2448 31.059 16.0964 31.5288 14.8958C31.8942 13.8518 34.2432 13.904 34.6608 14.948ZM41.238 15.47C41.238 17.5058 38.7846 21.4208 37.4274 21.4208C36.6966 21.4208 37.584 18.1844 38.9412 16.0442C40.4028 13.7996 41.238 13.5908 41.238 15.47ZM73.9674 20.951C75.0114 22.517 75.429 23.9264 75.5856 26.2754L75.7944 29.5118L74.4372 28.259C71.3574 25.388 69.7392 18.8108 72.1404 18.8108C72.3492 18.8108 73.1844 19.7504 73.9674 20.951ZM20.7234 23.3522C20.619 24.605 20.0448 26.1188 19.5228 26.693C18.531 27.7892 18.531 27.7892 20.097 27.6326C22.446 27.476 23.49 27.6326 23.49 28.2068C23.49 28.9898 19.7838 29.4596 18.6876 28.781C17.9568 28.3112 17.748 28.3634 17.748 28.8854C17.748 29.303 17.1738 30.1382 16.443 30.8168C15.7122 31.4954 15.138 31.8086 15.138 31.4954C15.138 31.2344 15.6078 30.5558 16.182 30.0338C16.965 29.3552 17.226 28.4156 17.226 26.5364C17.226 24.1874 18.0612 21.6818 19.4706 19.9592C20.358 18.863 21.0366 20.69 20.7234 23.3522ZM99.18 53.837C99.18 86.8274 99.18 87.1928 98.136 87.1928C97.092 87.1928 97.092 86.8274 97.092 53.8892C97.092 35.567 97.2486 20.429 97.4052 20.2202C97.5618 20.0636 98.0316 20.0636 98.4492 20.2202C99.0756 20.429 99.18 25.7012 99.18 53.837ZM31.581 20.8988C32.0508 21.6296 28.71 23.5088 26.883 23.5088C26.0478 23.5088 24.9516 23.2478 24.534 22.9868C23.8554 22.517 23.9076 22.3082 25.0038 21.4208C26.3088 20.2724 31.0068 19.907 31.581 20.8988ZM48.546 24.2918C49.3812 24.7616 50.4774 25.8056 50.895 26.6408C51.678 28.1546 51.678 28.2068 50.634 28.2068C48.285 28.2068 45.414 25.91 45.414 24.083C45.414 23.3 46.7712 23.3522 48.546 24.2918ZM115.362 30.7646V37.0286L116.824 36.2456C120.321 34.4186 125.28 35.8802 127.368 39.2732C128.673 41.4134 128.777 45.8504 127.577 48.356C125.854 52.01 120.895 53.6804 116.302 52.1666C114.422 51.5402 114.109 51.5924 113.535 52.3754C111.917 54.62 111.708 53.4194 111.708 40.4738V27.6848L110.038 26.6408C108.419 25.649 108.419 25.649 109.672 25.388C115.884 24.0308 115.362 23.561 115.362 30.7646ZM40.5594 26.693C41.8122 27.2672 42.804 27.998 42.804 28.259C42.804 28.52 44.1612 28.7288 45.8316 28.781C48.3894 28.781 54.1314 30.086 52.3566 30.2426C51.9912 30.2948 51.678 30.6602 51.678 31.13C51.678 31.5998 50.895 32.7482 49.9032 33.74C47.9196 35.7236 45.936 36.089 45.936 34.523C45.936 33.218 48.3894 30.2948 49.4856 30.2948C50.2686 30.2426 50.2686 30.1904 49.4334 29.7206C48.9636 29.4596 47.1888 29.2508 45.5184 29.3552L42.543 29.5118L42.282 31.5998C41.9688 33.74 40.455 36.5588 39.6198 36.5588C38.889 36.5588 39.0978 33.5312 39.933 31.8608C40.4028 30.9734 41.0292 30.2948 41.3424 30.2948C41.6556 30.2948 41.8122 30.1382 41.6034 29.9816C41.2902 29.6162 37.2708 31.4432 35.8614 32.5916C34.974 33.2702 34.974 33.4268 35.7048 34.9406C36.6444 36.6632 36.801 38.96 36.0702 39.4298C35.3916 39.8474 33.93 37.6028 33.93 36.1412C33.93 34.523 33.1992 35.045 31.5288 37.916L30.1194 40.3172L31.4766 41.4134C32.8338 42.5096 34.2432 45.3284 33.7212 45.8504C33.147 46.3724 30.798 44.2844 30.4848 42.9794C30.1194 41.6744 30.0672 41.6744 29.7018 42.5618C29.493 43.136 29.2842 44.5976 29.2842 45.7982C29.232 47.7818 29.3886 47.9906 30.7458 48.3038C32.2074 48.617 34.3476 50.3918 33.8256 50.9138C33.4602 51.3314 30.276 50.0786 30.276 49.5566C30.276 49.2956 30.015 49.0868 29.754 49.0868C29.1276 49.0868 29.5452 51.2792 30.5892 53.3672C31.32 54.7244 31.3722 54.7766 33.147 53.9936C35.0784 53.2106 37.7928 53.5238 37.4274 54.5156C37.323 54.8288 36.0702 55.0898 34.5564 55.0898C33.0426 55.0898 31.842 55.1942 31.842 55.3508C31.8942 55.7162 33.9822 57.9608 35.3394 59.1614C36.3834 60.101 36.54 60.101 37.7928 59.2658C39.2022 58.3262 42.804 58.535 42.804 59.5268C42.804 60.3098 40.9248 61.0928 39.0978 61.0928C37.5318 61.0928 37.4796 61.145 38.2626 62.0324C39.2022 63.0764 39.4632 65.2688 38.6802 65.2688C37.9494 65.2688 36.018 62.6588 36.018 61.667C36.018 61.145 35.1828 59.9966 34.191 59.0048L32.364 57.23V58.9004C32.364 59.84 32.1552 60.5708 31.8942 60.5708C31.1634 60.5708 30.2238 57.491 30.5892 56.186C30.7458 55.5596 30.3282 53.8892 29.7018 52.4798C28.6578 50.0786 28.5012 49.9742 28.0314 51.0182C27.7704 51.6446 27.1962 52.271 26.8308 52.4276C25.6302 52.8974 25.9956 50.705 27.3528 49.3478C28.2924 48.4082 28.6056 47.4164 28.8144 45.0152L29.0232 41.9354L27.2484 43.1882C24.1686 45.2762 22.8636 44.441 25.317 42.0398C26.0478 41.2568 27.1962 40.7348 28.0836 40.7348C29.2842 40.7348 29.754 40.3694 30.6936 38.3858C31.32 37.0808 32.7816 34.9928 33.93 33.74L36.018 31.4432H33.9822C31.3722 31.391 29.2842 30.3992 30.3282 29.7206C31.7898 28.8332 35.1306 29.5118 36.0702 30.9212C36.2268 31.13 37.323 30.869 38.5236 30.2948C39.672 29.7206 41.0814 29.2508 41.6034 29.1986C42.1254 29.1986 41.499 28.781 40.194 28.3112C37.3752 27.2672 36.54 26.7452 36.54 26.0666C36.54 25.2836 38.1582 25.5446 40.5594 26.693ZM14.2506 28.52C14.5116 29.4596 14.4594 30.608 14.094 31.5998C13.5198 33.1136 13.4676 33.1136 12.7368 32.174C11.5362 30.5036 11.9016 26.3276 13.2588 26.7974C13.572 26.9018 13.9896 27.6848 14.2506 28.52ZM59.769 31.391C60.2388 32.8526 58.9338 34.1576 57.4722 33.6878C56.4282 33.3746 55.9584 31.4432 56.7414 30.6602C57.5244 29.8772 59.4558 30.347 59.769 31.391ZM10.4922 33.3224C11.0664 34.8362 10.701 38.1248 9.918 38.1248C9.0306 38.1248 7.83 35.0972 7.83 32.9048C7.83 30.9212 7.8822 30.8168 8.874 31.3388C9.5004 31.652 10.2312 32.5394 10.4922 33.3224ZM24.2208 35.306C24.6906 35.7236 25.056 36.4544 25.056 36.8198C25.056 37.8116 23.5944 39.1688 22.4982 39.1688C20.4624 39.1688 19.5228 36.0368 21.2976 35.045C22.5504 34.262 23.2812 34.3664 24.2208 35.306ZM31.581 35.2538C31.581 35.5148 30.4326 35.828 28.971 35.9324C26.5176 36.0368 26.4132 35.9846 27.405 35.2538C28.5012 34.3664 31.581 34.3664 31.581 35.2538ZM135.772 36.9242C135.772 37.7594 135.929 38.0726 136.085 37.7072C136.503 36.6632 139.165 35.5148 141.097 35.5148C143.08 35.5148 144.281 36.5066 143.759 37.8116C143.341 38.96 142.245 38.8556 140.522 37.6028C137.495 35.3582 136.242 37.7072 136.242 45.485C136.242 50.444 136.294 50.6006 137.704 51.6446L139.113 52.6886L134.572 52.7408C132.014 52.7408 129.978 52.6364 129.978 52.4798C129.978 52.3232 130.552 51.9578 131.283 51.6968C132.588 51.227 132.588 51.1748 132.588 44.3888V37.6028L131.231 36.9764C130.03 36.4022 129.978 36.2978 130.865 35.9846C131.387 35.7758 132.692 35.567 133.789 35.567C135.563 35.5148 135.72 35.6192 135.772 36.9242ZM157.122 36.2978C158.688 37.0808 160.254 39.482 160.254 40.9958C160.254 41.6744 159.314 41.7788 154.199 41.7788H148.144L148.509 44.2322C148.979 47.6774 150.284 49.7132 152.633 50.8616C155.295 52.1666 158.27 51.3836 159.314 49.0868C159.68 48.1994 160.15 47.5208 160.358 47.5208C161.611 47.5208 159.419 51.0182 157.644 51.9578C155.295 53.1584 150.858 53.0018 148.77 51.5402C145.742 49.5044 144.855 47.834 144.855 44.18C144.855 41.4134 145.116 40.5782 146.264 39.0644C148.77 35.7758 153.677 34.523 157.122 36.2978ZM169.024 36.2978C169.389 37.0286 169.598 37.0286 171.007 36.2978C173.461 35.045 177.115 35.2538 178.994 36.872L180.612 38.2292V44.441V50.6528L182.335 51.6968L184.005 52.7408H179.046C174.4 52.6886 174.191 52.6364 175.496 51.9578C176.488 51.3836 177.01 50.6006 177.271 49.2956C177.793 46.5812 177.271 38.3336 176.54 37.4462C174.87 35.4626 170.798 36.0368 169.702 38.438C169.389 39.1688 169.128 42.1964 169.128 45.1718C169.128 50.444 169.18 50.6006 170.59 51.6446L171.999 52.6886L167.458 52.7408C164.9 52.7408 162.864 52.6364 162.864 52.4798C162.864 52.3232 163.438 51.9578 164.169 51.6968C165.474 51.227 165.474 51.1748 165.474 44.3888V37.6028L164.117 36.9764C162.916 36.4022 162.864 36.2978 163.751 35.9846C165.474 35.2538 168.554 35.4626 169.024 36.2978ZM190.426 36.2978C190.791 37.0286 191 37.0286 192.409 36.2978C194.863 35.045 198.517 35.2538 200.396 36.872L202.014 38.2292V44.441V50.6528L203.737 51.6968L205.407 52.7408H200.448C195.802 52.6886 195.593 52.6364 196.898 51.9578C197.89 51.3836 198.412 50.6006 198.673 49.2956C199.195 46.5812 198.673 38.3336 197.942 37.4462C196.272 35.4626 192.2 36.0368 191.104 38.438C190.791 39.1688 190.53 42.1964 190.53 45.1718C190.53 50.444 190.582 50.6006 191.992 51.6446L193.401 52.6886L188.86 52.7408C186.302 52.7408 184.266 52.6364 184.266 52.4798C184.266 52.3232 184.84 51.9578 185.571 51.6968C186.876 51.227 186.876 51.1748 186.876 44.3888V37.6028L185.519 36.9764C184.318 36.4022 184.266 36.2978 185.153 35.9846C186.876 35.2538 189.956 35.4626 190.426 36.2978ZM211.462 41.6222C211.514 45.0152 211.671 48.356 211.88 49.0868C212.715 52.0622 217.831 52.2188 219.188 49.2956C219.501 48.5648 219.762 45.6416 219.762 42.7706V37.6028L218.092 36.5588L216.369 35.5148H219.658H222.894L222.946 42.4052C222.946 50.0786 223.155 50.966 225.034 52.01C226.183 52.6364 226.078 52.6886 223.051 52.7408C220.441 52.7408 219.762 52.5842 219.762 51.9578C219.762 51.227 219.605 51.227 218.196 51.9578C217.361 52.3754 215.482 52.7408 214.02 52.7408C211.723 52.7408 211.097 52.4798 209.792 51.227C208.278 49.7132 208.278 49.6088 208.278 43.658V37.6028L206.608 36.5588L204.885 35.5148H208.174H211.41L211.462 41.6222ZM237.51 37.9682V40.4738L236.466 38.7512C235.109 36.5066 233.073 35.7236 231.455 36.8198C228.949 38.438 230.15 40.526 234.639 42.5618C236.153 43.1882 237.771 44.2844 238.241 44.963C239.598 46.8944 239.337 49.4522 237.562 51.227C236.101 52.6364 235.787 52.7408 231.82 52.7408H227.592V50.1308C227.592 48.6692 227.749 47.5208 228.01 47.5208C228.218 47.5208 228.845 48.3038 229.367 49.2956C231.194 52.6886 235.474 53.0018 236.257 49.8698C236.675 48.1472 235.683 46.9988 231.977 44.9108C230.463 44.0756 228.949 42.9272 228.636 42.353C227.696 40.526 228.01 38.3336 229.471 36.872C230.672 35.6714 231.298 35.5148 234.169 35.5148H237.51V37.9682ZM73.4976 47.6252C75.2724 49.4 73.1844 52.3232 70.992 51.1748C69.165 50.183 69.948 46.9988 72.036 46.9988C72.5058 46.9988 73.1322 47.2598 73.4976 47.6252ZM83.5722 54.3068C85.1382 55.1942 86.4954 58.4828 86.1822 60.7274C86.0778 61.5104 83.9898 59.9444 82.998 58.3262C82.0584 56.8124 81.5364 53.7848 82.2672 53.7848C82.4238 53.7848 82.998 54.0458 83.5722 54.3068ZM18.531 57.1256C19.0008 60.9362 18.4266 63.9638 16.8606 65.7908C15.399 67.5134 14.355 67.7744 13.8852 66.5216C13.2588 64.9034 13.572 60.5186 14.4072 58.8482C15.66 56.447 17.226 54.3068 17.748 54.3068C18.009 54.3068 18.3744 55.5596 18.531 57.1256ZM64.989 56.9168C63.684 59.4224 60.6042 62.6066 58.2552 63.8072C55.9584 65.0078 49.1724 65.843 49.7988 64.8512C49.9554 64.538 51.9912 63.7028 54.2358 62.9198C58.7772 61.406 61.7526 59.5268 63.9972 56.708C65.772 54.5156 66.1896 54.62 64.989 56.9168ZM73.5498 56.0816C74.8026 57.3866 75.951 60.7796 75.429 61.6148C74.4894 63.1286 70.992 58.9004 70.992 56.2382C70.992 54.4634 71.9838 54.4112 73.5498 56.0816ZM24.0642 58.535C24.534 59.4746 24.4296 59.84 23.5944 60.6752C22.7592 61.5104 22.3938 61.6148 21.4542 61.145C20.4102 60.5708 19.9404 58.535 20.7234 57.8042C21.4542 57.0212 23.49 57.491 24.0642 58.535ZM81.171 65.2166C80.7012 67.7222 69.5826 79.0496 64.3104 82.3382C60.552 84.6872 52.9308 87.7148 50.895 87.6626C50.3208 87.6626 51.6258 87.0884 53.766 86.462C61.8048 84.0086 68.382 79.7282 73.602 73.5686C75.6378 71.1674 75.951 70.4366 76.2642 67.5656C76.6296 64.1726 77.8302 61.928 80.0226 60.7274C81.0666 60.1532 81.171 60.2576 81.3276 61.7714C81.432 62.6588 81.3798 64.1726 81.171 65.2166ZM43.848 62.972C44.4744 63.5984 44.4222 63.7028 43.1172 63.7028C41.3424 63.7028 39.5154 62.7632 39.933 62.0846C40.3506 61.4582 42.804 62.0324 43.848 62.972ZM70.9398 62.3456C71.8272 63.3896 71.0442 64.7468 69.6348 64.7468C68.2776 64.7468 67.5468 63.7028 68.0688 62.3978C68.4342 61.406 70.1568 61.3538 70.9398 62.3456ZM27.5616 67.0436C27.7704 69.8102 27.5616 70.8542 26.361 73.5686C24.795 76.9616 24.3774 77.327 23.5422 75.761C21.5064 72.0548 21.8718 67.0958 24.3774 63.8072C25.578 62.189 25.7868 62.1368 26.5176 62.8676C27.0396 63.3896 27.4572 64.9034 27.5616 67.0436ZM72.819 67.931C73.0278 68.5052 73.0278 69.758 72.8712 70.6454C72.5058 72.5768 70.731 75.0824 70.1568 74.5082C69.3738 73.7774 69.687 69.6536 70.6266 68.2442C71.7228 66.5738 72.3492 66.4694 72.819 67.931ZM116.249 68.8184C114.997 70.1756 114.997 76.022 116.249 77.3792C117.032 78.2666 116.98 78.3188 114.318 78.3188C111.76 78.3188 111.604 78.2666 112.543 77.588C113.378 76.9616 113.535 76.1786 113.535 73.0988C113.535 70.019 113.378 69.236 112.543 68.6096C111.604 67.931 111.76 67.8788 114.318 67.8788C116.98 67.8788 117.032 67.931 116.249 68.8184ZM199.404 72.2636C199.404 75.5 199.613 76.9094 200.187 77.4836C200.866 78.1622 200.657 78.2666 197.995 78.2666C194.445 78.2666 193.14 77.3792 193.14 74.9258C193.14 72.6812 194.706 71.2718 196.794 71.6894C198.099 71.9504 198.36 71.846 198.36 71.0108C198.36 70.4888 197.995 69.7058 197.577 69.2882C197.003 68.6618 196.951 68.4008 197.473 68.2442C199.247 67.5134 199.404 67.8788 199.404 72.2636ZM209.844 68.6618C209.844 69.0794 209.479 69.4448 209.061 69.4448C208.643 69.4448 208.278 69.0794 208.278 68.6618C208.278 68.2442 208.643 67.8788 209.061 67.8788C209.479 67.8788 209.844 68.2442 209.844 68.6618ZM53.1396 74.3516C52.983 76.1264 52.461 78.371 51.939 79.3628C50.895 81.503 47.0322 85.6268 46.0926 85.6268C45.1008 85.6268 44.6832 82.2338 45.3618 79.5716C46.0926 76.805 47.7108 74.0906 50.373 71.2196C52.1478 69.3926 52.3044 69.2882 52.8264 70.1756C53.1396 70.6976 53.244 72.5768 53.1396 74.3516ZM148.405 71.585C149.031 71.6372 151.798 71.6372 154.512 71.6372C157.226 71.6372 159.784 71.8982 160.15 72.1592C160.463 72.4724 160.776 73.673 160.776 74.8736C160.776 76.0742 161.037 77.327 161.402 77.6924C161.872 78.1622 161.559 78.3188 159.993 78.3188C158.427 78.3188 158.114 78.1622 158.584 77.6924C159.523 76.7528 159.367 72.629 158.375 72.2114C157.279 71.7938 156.6 72.5768 156.287 74.7692C156.078 76.0742 156.235 76.805 156.861 77.4314C157.644 78.2666 157.592 78.3188 155.765 78.3188C154.199 78.3188 153.938 78.1622 154.408 77.6924C155.295 76.805 155.191 73.3598 154.251 72.5768C153.625 72.0548 153.311 72.0548 152.685 72.5768C151.745 73.3598 151.641 76.805 152.581 77.7446C153.103 78.2666 152.528 78.3188 149.814 78.2144L146.421 78.0578L146.264 75.0302C146.16 73.412 145.899 72.0548 145.586 72.0548C145.325 72.0548 145.481 71.4806 146.003 70.802C146.891 69.6536 146.943 69.6014 147.1 70.541C147.204 71.1152 147.726 71.5328 148.405 71.585ZM180.769 71.585C181.917 71.6894 181.917 71.6894 180.769 71.8982C179.725 72.107 179.568 72.4724 179.568 74.3516C179.568 76.9616 180.403 78.11 181.552 77.1182C182.178 76.5962 182.282 76.6484 182.074 77.2748C181.917 77.7446 181.186 78.0578 180.299 78.0578C178.837 78.0578 178.785 78.0056 178.628 75.0302C178.524 73.412 178.263 72.0548 177.95 72.0548C177.689 72.0548 177.845 71.4806 178.367 70.802C179.255 69.6536 179.307 69.6014 179.464 70.541C179.568 71.1152 180.09 71.585 180.769 71.585ZM66.7638 74.2994C66.816 75.6566 66.4506 77.6402 65.9808 78.7364L65.1456 80.6678L64.3626 78.8408C63.4752 76.805 63.684 74.8214 64.989 71.7416C65.772 69.9668 65.9286 69.8102 66.294 70.7498C66.555 71.324 66.7638 72.9422 66.7638 74.2994ZM60.3432 72.89C60.8652 75.6566 60.1866 79.2584 58.725 81.764C57.9942 83.0168 57.159 84.1652 56.898 84.3218C55.593 85.157 54.81 79.2062 55.9062 76.3874C56.5848 74.5604 58.986 71.0108 59.5602 71.0108C59.769 71.0108 60.1344 71.846 60.3432 72.89ZM120.06 74.2994C120.06 75.8132 120.321 77.327 120.686 77.6924C121.156 78.1622 120.843 78.3188 119.277 78.3188C117.711 78.3188 117.398 78.1622 117.868 77.6924C118.651 76.9094 118.703 73.3076 117.972 72.8378C117.189 72.368 117.868 71.5328 119.068 71.5328C119.903 71.5328 120.06 71.8982 120.06 74.2994ZM124.236 72.5246C124.497 73.0988 124.758 74.3516 124.758 75.2912C124.758 76.283 125.019 77.327 125.384 77.6924C125.854 78.1622 125.541 78.3188 123.975 78.3188C122.409 78.3188 122.096 78.1622 122.566 77.6924C124.132 76.1264 122.722 71.324 121.052 72.368C120.634 72.5768 120.582 72.5246 120.791 72.1592C121.365 71.1674 123.61 71.4284 124.236 72.5246ZM128.516 72.1592C128.151 72.629 128.203 73.3598 128.777 74.6648L129.508 76.4918L130.291 74.717C130.865 73.412 130.865 72.7856 130.448 72.2636C129.978 71.6894 130.135 71.5328 131.179 71.5328H132.484L131.544 73.412C131.022 74.4038 130.343 75.9176 130.03 76.805C129.56 78.2144 128.412 78.9452 128.412 77.849C128.412 77.4836 126.95 73.934 125.906 71.8982C125.802 71.6894 126.481 71.5328 127.368 71.5328C128.673 71.5328 128.934 71.6894 128.516 72.1592ZM137.704 72.1592C138.956 73.412 138.382 74.1428 136.242 74.1428C134.519 74.1428 134.154 74.2994 134.154 75.1346C134.154 76.283 135.459 77.7968 136.451 77.7968C136.764 77.7968 137.338 77.5358 137.704 77.1704C138.121 76.7528 138.33 76.7528 138.33 77.1182C138.33 77.7968 137.129 78.3188 135.563 78.3188C132.953 78.3188 131.596 74.5604 133.475 72.4724C134.415 71.4284 136.764 71.2196 137.704 72.1592ZM144.072 72.3158C144.072 72.9944 143.863 73.0466 142.976 72.5246C142.141 72.107 141.723 72.107 141.253 72.5768C140.836 73.0466 140.836 73.3076 141.358 73.4642C141.723 73.6208 142.663 74.2472 143.393 74.8736C144.542 75.8654 144.646 76.1786 144.124 77.1704C143.237 78.8408 139.896 78.8408 139.896 77.1704C139.896 76.0742 139.948 76.0742 140.94 77.0138C141.775 77.7446 142.141 77.849 142.61 77.3792C143.132 76.8572 142.871 76.3874 141.566 75.1868C139.739 73.5164 139.583 73.0988 140.522 72.1592C141.462 71.2196 144.072 71.3762 144.072 72.3158ZM167.458 72.1592C168.71 73.412 168.136 74.1428 165.996 74.1428C164.273 74.1428 163.908 74.2994 163.908 75.1346C163.908 76.283 165.213 77.7968 166.205 77.7968C166.518 77.7968 167.092 77.5358 167.458 77.1704C167.875 76.7528 168.084 76.7528 168.084 77.1182C168.084 77.7968 166.883 78.3188 165.317 78.3188C162.707 78.3188 161.35 74.5604 163.229 72.4724C164.169 71.4284 166.518 71.2196 167.458 72.1592ZM171.738 74.2994C171.738 75.8132 171.999 77.327 172.364 77.6924C172.834 78.1622 172.521 78.3188 170.955 78.3188C169.389 78.3188 169.076 78.1622 169.546 77.6924C170.329 76.9094 170.381 73.3076 169.65 72.8378C168.867 72.368 169.546 71.5328 170.746 71.5328C171.581 71.5328 171.738 71.8982 171.738 74.2994ZM175.914 72.5246C176.175 73.0988 176.436 74.3516 176.436 75.2912C176.436 76.283 176.697 77.327 177.062 77.6924C177.532 78.1622 177.219 78.3188 175.653 78.3188C174.087 78.3188 173.774 78.1622 174.244 77.6924C175.81 76.1264 174.4 71.324 172.73 72.368C172.312 72.5768 172.26 72.5246 172.469 72.1592C173.043 71.1674 175.288 71.4284 175.914 72.5246ZM191.052 72.5246C191.313 73.0988 191.574 74.5082 191.574 75.7088C191.574 77.0138 191.783 77.7446 192.096 77.5358C192.409 77.3792 192.618 77.4314 192.618 77.7446C192.618 78.0056 191.261 78.2144 189.643 78.1622C186.928 78.0578 186.615 77.9534 186.458 76.8572C186.302 75.9176 186.667 75.5 188.129 74.9258C190.008 74.1428 190.53 72.9944 189.382 72.2636C189.068 72.0548 188.546 72.2636 188.181 72.7334C187.398 73.7774 186.354 73.8818 186.354 72.9422C186.354 71.846 186.928 71.5328 188.755 71.5328C189.956 71.5328 190.687 71.846 191.052 72.5246ZM203.684 72.1592C203.319 72.629 203.371 73.3598 203.945 74.6648L204.676 76.4918L205.459 74.717C206.033 73.412 206.033 72.7856 205.616 72.2636C205.146 71.6372 205.459 71.5328 207.443 71.5328H209.844V74.2994C209.844 75.8132 210.105 77.327 210.47 77.6924C210.94 78.1622 210.679 78.3188 209.113 78.3188C207.443 78.3188 207.182 78.2144 207.704 77.588C208.487 76.7006 208.278 72.9944 207.443 72.7334C207.13 72.629 206.399 73.7774 205.825 75.2912C204.885 77.6924 203.58 79.2584 203.58 77.9012C203.58 77.4836 202.118 74.0384 201.074 71.8982C200.97 71.6894 201.649 71.5328 202.536 71.5328C203.841 71.5328 204.102 71.6894 203.684 72.1592ZM215.586 72.3158C215.586 72.9944 215.377 73.0466 214.49 72.5246C213.655 72.107 213.237 72.107 212.767 72.5768C212.35 73.0466 212.35 73.3076 212.872 73.4642C213.237 73.6208 214.177 74.2472 214.907 74.8736C216.056 75.8654 216.16 76.1786 215.638 77.1704C214.751 78.8408 211.41 78.8408 211.41 77.1704C211.41 76.0742 211.462 76.0742 212.454 77.0138C213.289 77.7446 213.655 77.849 214.124 77.3792C214.646 76.8572 214.385 76.3874 213.08 75.1868C211.253 73.5164 211.097 73.0988 212.036 72.1592C212.976 71.2196 215.586 71.3762 215.586 72.3158ZM223.259 72.6812C224.773 74.0906 224.773 75.5522 223.312 77.1182C221.067 79.5194 217.152 78.11 217.152 74.9258C217.152 71.7938 220.858 70.3844 223.259 72.6812ZM232.969 72.4724C232.864 72.9944 233.021 74.0906 233.334 74.9258L233.96 76.4918L234.691 74.717C235.265 73.412 235.265 72.7856 234.848 72.2636C234.378 71.6894 234.535 71.5328 235.683 71.5328C236.727 71.5328 236.988 71.6894 236.623 72.1592C236.309 72.5246 235.474 74.456 234.691 76.4918C233.908 78.4754 233.021 80.459 232.708 80.7722C232.029 81.6074 230.724 81.6596 230.724 80.8766C230.724 80.5634 231.089 80.459 231.507 80.6156C232.029 80.8244 232.499 80.459 232.812 79.6238C233.177 78.632 232.969 77.6924 231.977 75.3956C231.246 73.7774 230.515 72.5768 230.359 72.7856C230.202 72.9422 229.68 72.8378 229.315 72.4724C228.74 72.0026 228.427 72.0026 228.062 72.629C227.383 73.673 227.488 76.9616 228.218 77.6924C228.688 78.1622 228.375 78.3188 226.809 78.3188C225.243 78.3188 224.93 78.1622 225.4 77.6924C226.183 76.9094 226.235 73.3076 225.504 72.8378C224.303 72.107 225.713 71.6372 229.367 71.585C232.812 71.5328 233.23 71.6372 232.969 72.4724ZM79.866 73.3598C79.866 73.8296 76.7862 75.1868 75.69 75.1868C74.385 75.1868 74.3328 74.4038 75.5856 73.673C76.473 73.151 79.866 72.89 79.866 73.3598ZM75.168 78.2666C75.168 78.5276 74.6982 78.893 74.124 79.0496C73.5498 79.2062 72.6102 79.5194 72.036 79.676C70.8876 79.9892 70.5222 78.5798 71.6706 78.1622C72.7668 77.6924 75.168 77.7968 75.168 78.2666ZM41.3424 79.7282C42.4908 80.7722 42.543 82.3904 41.3946 83.6432C40.3506 84.7916 38.9934 84.8438 37.8972 83.7476C36.801 82.7036 36.8532 80.981 37.9494 79.7804C38.9934 78.632 40.0896 78.5798 41.3424 79.7282ZM70.4178 81.9206C71.6706 82.7036 70.47 83.5388 68.0688 83.5388C65.5632 83.5388 65.0934 82.9646 66.9726 82.0772C68.382 81.3986 69.4782 81.3464 70.4178 81.9206ZM27.8748 84.1652C28.2924 84.896 28.2402 85.2614 27.5616 85.94C25.9956 87.506 23.6466 85.4702 25.056 83.7476C25.8912 82.808 27.0918 82.9646 27.8748 84.1652ZM65.0412 86.3576C65.9808 87.0884 65.9808 87.1406 64.6236 87.6626C63.8406 87.9758 62.901 88.1324 62.5356 88.028C62.1702 87.8714 61.1784 87.6626 60.291 87.4538C58.7772 87.1406 58.7772 87.0884 59.7168 86.3576C61.0218 85.418 63.7362 85.418 65.0412 86.3576ZM46.5102 89.855C48.546 90.5336 50.634 92.2562 50.634 93.248C50.634 94.1876 48.807 94.6574 46.9278 94.2398C45.1008 93.8222 41.76 91.1078 41.76 90.0116C41.76 89.1242 44.0568 89.072 46.5102 89.855ZM57.9942 89.8028C59.8212 90.7946 59.1948 91.8908 56.7414 91.8908C54.6012 91.8908 52.2 90.7946 52.2 89.7506C52.2 89.1242 56.6892 89.1242 57.9942 89.8028Z" fill="white"/>
<path d="M116.928 37.4984C115.414 39.0122 115.362 39.221 115.362 43.8668C115.362 49.5044 116.093 51.4358 118.546 51.9578C123.14 53.0018 126.376 45.5894 123.766 39.9518C122.67 37.5506 121.887 36.7676 119.956 36.2978C118.807 35.9846 118.233 36.2456 116.928 37.4984Z" fill="white"/>
<path d="M151.641 36.5588C150.231 37.0808 149.448 38.0726 149.031 39.8474L148.665 41.2568H152.894H157.122L156.809 39.7952C156.495 38.2814 154.355 36.0368 153.311 36.089C152.946 36.089 152.215 36.2978 151.641 36.5588Z" fill="white"/>
<path d="M195.332 72.6812C194.445 73.5686 194.549 76.4918 195.489 77.2748C197.212 78.7364 198.882 76.022 197.838 73.412C197.316 71.9504 196.324 71.6894 195.332 72.6812Z" fill="white"/>
<path d="M147.204 74.3517C147.204 76.6485 148.3 78.4233 149.031 77.2749C149.188 76.9617 149.605 76.8573 149.866 77.0139C150.597 77.4837 150.44 73.4121 149.71 72.6813C149.344 72.3159 148.666 72.0549 148.144 72.0549C147.361 72.0549 147.204 72.4725 147.204 74.3517Z" fill="white"/>
<path d="M134.833 72.4202C133.58 72.89 134.154 73.6208 135.772 73.6208C137.182 73.6208 137.338 73.5164 136.764 72.8378C136.085 72.0026 135.877 71.9504 134.833 72.4202Z" fill="white"/>
<path d="M164.587 72.4202C163.334 72.89 163.908 73.6208 165.526 73.6208C166.936 73.6208 167.092 73.5164 166.518 72.8378C165.839 72.0026 165.631 71.9504 164.587 72.4202Z" fill="white"/>
<path d="M188.755 75.3434C188.077 75.8132 187.868 76.3874 188.129 77.0138C188.442 77.9012 188.546 77.9012 189.277 77.1704C189.747 76.7006 190.008 75.9698 189.904 75.5C189.747 74.717 189.643 74.717 188.755 75.3434Z" fill="white"/>
<path d="M219.658 72.629C218.457 73.3076 218.457 75.8654 219.553 77.0138C220.597 78.0578 221.38 77.7968 222.32 76.1264C222.999 74.9258 222.999 74.6126 222.216 73.412C221.224 71.8982 220.963 71.846 219.658 72.629Z" fill="white"/>
</g>
<defs>
<clipPath id="clip0_176_72">
<rect width="261" height="97" fill="white"/>
</clipPath>
</defs>
</svg>
