<svg width="319" height="123" viewBox="0 0 319 123" fill="none" xmlns="http://www.w3.org/2000/svg">
<g clip-path="url(#clip0_176_96)">
<rect y="-0.108398" width="318.922" height="132.034" fill="white"/>
<path d="M0 -11.4587V70.8231H3.12543C5.61302 70.8231 6.69735 71.2058 8.22818 72.4815C10.3968 74.2675 10.5244 74.0123 9.50386 69.9939C8.99359 67.8252 8.29196 66.996 6.05951 65.5928C4.52869 64.6998 2.80651 62.9776 2.23245 61.8933C1.14812 59.8522 0.765412 56.4716 1.46704 55.77C2.29624 54.9408 6.12329 57.8749 7.27141 60.1711C7.90926 61.5106 8.48331 62.5311 8.61088 62.4036C8.67467 62.276 8.99359 60.5538 9.18494 58.5127C9.56765 55.5149 9.50386 54.877 8.67467 54.877C7.39898 54.877 5.23031 51.9429 4.78382 49.5191C4.52869 48.4348 4.72004 46.6488 5.10275 45.6283L5.86816 43.7148L7.39898 45.5007C8.29196 46.5213 9.31251 48.5624 9.69522 50.0932L10.4606 52.8997L12.8206 47.9883C16.8391 39.6326 17.0304 39.505 21.2402 39.1861C23.4088 38.9947 24.8759 39.1223 24.8759 39.505C24.8759 40.5893 22.4521 41.5461 19.7094 41.6099C17.9234 41.6099 16.9028 41.9926 16.265 42.9494C14.8617 44.9905 15.0531 45.118 18.4975 44.7991C20.2834 44.6715 21.6867 44.6715 21.6867 44.9267C21.6867 45.8197 17.4131 47.8607 15.5634 47.8607C13.7774 47.8607 13.3947 48.1797 12.5017 50.4121C11.226 53.6013 11.226 53.9841 12.4379 52.9635C13.8412 51.8154 18.8802 50.4759 20.3472 50.8586C21.4953 51.1775 21.5591 51.3689 20.9213 52.1981C19.7094 53.6651 15.3082 55.5149 12.9482 55.5149C11.8639 55.5149 10.7795 55.77 10.5882 56.0889C10.3968 56.4079 10.0779 58.7679 9.88657 61.3192C9.56765 65.2739 9.63143 65.8479 10.3331 64.8274C12.6293 61.4468 14.9893 59.3419 17.9234 58.13C19.7094 57.3008 21.304 56.8543 21.4953 56.9819C21.6229 57.1733 21.3677 58.2576 20.8575 59.4695C19.7094 62.276 15.9461 65.4652 12.7569 66.422C9.69522 67.3788 9.50386 68.6544 11.6725 74.0123C13.6498 78.8599 16.5201 82.8146 21.6229 87.9173C25.5775 91.8719 35.0814 98.8882 36.4208 98.8882C36.7398 98.8882 36.9949 97.6125 36.9949 96.1455C36.9949 92.7649 39.4825 88.9379 43.4371 86.3227C45.6058 84.9194 46.1161 84.7919 46.6263 85.5573C48.795 89.0016 44.9679 96.9109 40.1203 98.8882C39.0998 99.3347 38.2706 99.7174 38.2706 99.7812C38.2706 99.845 39.8014 101.503 41.6512 103.544L45.0955 107.18L52.6858 107.244C59.447 107.308 59.8935 107.372 56.768 107.882C54.8545 108.201 51.3464 108.265 48.9864 108.073L44.649 107.69V110.625C44.649 112.219 44.3939 113.559 44.1387 113.559C42.9906 113.559 39.1636 110.178 38.143 108.265C37.569 107.116 37.0587 104.884 36.9949 103.226C36.9949 100.547 36.8036 100.1 35.1452 99.2709C33.4868 98.3779 33.1041 98.4417 30.6165 99.6536C26.8532 101.567 22.0056 101.822 19.1991 100.355C17.9872 99.7174 16.9028 98.8882 16.7115 98.4417C16.0736 96.3368 25.6413 94.6784 28.8305 96.4006C31.5732 97.8677 30.2976 96.4644 25.5137 92.7011C20.6023 88.8741 20.4748 88.7465 18.1147 89.4481C16.7753 89.767 14.0325 89.9584 11.9277 89.8308C8.99359 89.5757 7.90926 89.193 6.506 87.8535C5.03896 86.3865 4.91139 86.0038 5.74059 85.4935C7.20763 84.5367 12.8844 84.7281 15.8823 85.8124C18.5612 86.7054 19.2629 86.3227 17.4769 84.7919C16.9028 84.3454 15.6272 82.7508 14.6704 81.2837C13.012 78.9237 12.4379 78.6048 8.9298 77.9032C5.93194 77.3291 4.52869 76.6275 2.55137 74.7139L0 72.2901V148.768V225.181H159.461H318.922V65.7204V-93.7404H159.461H0V-11.4587ZM69.7163 17.5632C71.8211 19.7319 72.3314 21.7092 70.8006 21.7092C69.206 21.7092 66.3357 18.7751 66.3357 17.2443C66.3357 15.5221 67.7389 15.6497 69.7163 17.5632ZM59.447 17.2443C60.7227 17.627 62.3173 18.5838 63.0189 19.4129C63.7843 20.4335 65.5703 21.2627 68.1217 21.9643C70.2265 22.4746 73.926 23.8141 76.286 24.8984C78.6461 25.9189 80.6234 26.8119 80.7509 26.8119C80.8785 26.8119 80.2407 26.0465 79.4115 25.1535C77.4979 23.1124 76.9239 21.454 77.4342 19.4767C78.3271 16.0324 81.8353 20.7524 81.5801 24.9622C81.3888 27.3222 81.5801 27.6411 84.5142 29.8736C88.6602 32.999 92.0408 37.5277 94.4008 43.0769L96.2505 47.5418L95.8678 44.3526C95.6127 42.1202 95.8678 40.398 96.6332 38.612C97.59 36.1882 97.7176 36.1244 98.6105 37.2726C100.014 39.2499 100.397 42.6304 99.5673 46.3299C98.6743 50.2846 97.8451 51.1138 96.9522 49.0089C96.5057 47.9245 96.4419 48.4348 96.697 51.05C97.2073 56.3441 97.3349 56.4716 99.5035 54.3668C101.8 52.0705 105.18 50.731 105.627 51.8792C106.137 53.2186 104.16 58.6403 102.374 61.0003C100.46 63.5517 96.0592 66.6771 95.1662 66.1031C94.7835 65.9117 94.7835 64.6998 95.1662 63.0414C96.697 55.4511 96.7608 55.77 93.7629 55.2597C89.0429 54.4943 84.5142 51.4327 82.5369 47.6694L81.5801 45.9472H83.8764C86.938 45.9472 91.0202 48.1159 93.9543 51.3051L96.4419 53.9203L95.9316 51.3689C95.1024 46.8402 93.3165 42.4391 92.4235 42.6304C91.9132 42.758 89.8083 42.8856 87.6396 42.8856C83.6212 42.8856 81.7077 42.2477 79.2201 40.0153C77.3704 38.2931 78.3271 37.6553 82.792 37.6553C86.1088 37.6553 89.1067 38.7396 91.4029 40.7169C92.87 41.9926 92.8062 41.1634 91.084 38.3569C88.724 34.4023 87.3845 33.1904 86.045 33.8282C84.4504 34.7212 78.5185 34.5936 76.2223 33.5731L74.3087 32.7439L75.7758 31.9785C77.6893 30.9579 82.9834 30.9579 84.8969 31.9785L86.4277 32.7439L85.2158 31.3406C84.5142 30.5752 82.9834 29.3633 81.7715 28.5979C79.6666 27.3222 79.539 27.2584 77.6893 28.4065C75.712 29.5547 71.1833 29.9374 70.2903 29.1082C69.3973 28.2152 72.3314 26.8119 75.1379 26.8119C78.4547 26.8119 78.1996 25.9827 74.3725 24.707C71.7574 23.8141 71.5022 23.8141 70.3541 25.026C68.7595 26.5568 63.4654 27.4498 63.9119 26.1103C64.0395 25.6 65.5065 24.7708 67.1649 24.1968L70.1628 23.1762L67.42 22.5384C64.8687 21.9643 64.4222 22.0919 62.8913 23.4314C61.1692 24.8984 58.6816 25.4087 58.6816 24.3243C58.6816 24.0054 59.447 23.1124 60.34 22.4108L62.0621 21.0713H60.4675C58.7454 21.0713 54.7907 18.7113 54.3442 17.3719C54.0253 16.4151 56.194 16.3513 59.447 17.2443ZM42.3528 18.2648C42.8631 19.6043 41.6512 21.0713 40.0565 21.0713C38.7171 21.0713 37.9517 19.6681 38.5257 18.201C38.9722 16.9254 41.8425 16.9892 42.3528 18.2648ZM50.3896 18.9027C50.3896 21.3903 47.3917 26.1741 45.7334 26.1741C44.8404 26.1741 45.9247 22.2195 47.5831 19.6043C49.3691 16.8616 50.3896 16.6064 50.3896 18.9027ZM90.3824 25.6C91.6581 27.5135 92.1683 29.2357 92.3597 32.106L92.6148 36.0607L90.9564 34.5298C87.1932 31.0217 85.2158 22.9849 88.1499 22.9849C88.4051 22.9849 89.4256 24.133 90.3824 25.6ZM25.3224 28.5341C25.1948 30.0649 24.4932 31.9147 23.8553 32.6163C22.6434 33.9558 22.6434 33.9558 24.557 33.7644C27.4273 33.5731 28.7029 33.7644 28.7029 34.466C28.7029 35.4228 24.1743 35.9969 22.8348 35.1677C21.9418 34.5936 21.6867 34.6574 21.6867 35.2952C21.6867 35.8055 20.985 36.8261 20.0921 37.6553C19.1991 38.4845 18.4975 38.8672 18.4975 38.4845C18.4975 38.1655 19.0715 37.3363 19.7731 36.6985C20.7299 35.8693 21.0488 34.7212 21.0488 32.4249C21.0488 29.5547 22.0694 26.493 23.7915 24.3881C24.8759 23.0487 25.7051 25.2811 25.3224 28.5341ZM121.19 65.7841C121.19 106.096 121.19 106.542 119.915 106.542C118.639 106.542 118.639 106.096 118.639 65.8479C118.639 43.4596 118.83 24.9622 119.022 24.707C119.213 24.5157 119.787 24.5157 120.297 24.707C121.063 24.9622 121.19 31.4044 121.19 65.7841ZM38.5895 25.5362C39.1636 26.4292 35.0814 28.7255 32.8489 28.7255C31.8284 28.7255 30.4889 28.4065 29.9786 28.0876C29.1494 27.5135 29.2132 27.2584 30.5527 26.1741C32.1473 24.7708 37.8879 24.3243 38.5895 25.5362ZM59.3194 29.6822C60.34 30.2563 61.6794 31.532 62.1897 32.5525C63.1465 34.4023 63.1465 34.466 61.8708 34.466C59.0005 34.466 55.4924 31.6595 55.4924 29.4271C55.4924 28.4703 57.1507 28.5341 59.3194 29.6822ZM140.963 37.5915V45.2456L142.749 44.2888C147.023 42.0564 153.082 43.8423 155.634 47.9883C157.228 50.6035 157.356 56.0251 155.889 59.0868C153.784 63.5517 147.724 65.5928 142.111 63.743C139.815 62.9776 139.433 63.0414 138.731 63.9982C136.754 66.7409 136.498 65.2739 136.498 49.4554V33.8282L134.457 32.5525C132.48 31.3406 132.48 31.3406 134.011 31.0217C141.601 29.3633 140.963 28.7892 140.963 37.5915ZM49.5604 32.6163C51.0912 33.3179 52.3031 34.2109 52.3031 34.5298C52.3031 34.8488 53.9615 35.1039 56.0026 35.1677C59.1281 35.1677 66.1443 36.7623 63.9757 36.9536C63.5292 37.0174 63.1465 37.4639 63.1465 38.038C63.1465 38.612 62.1897 40.0153 60.9778 41.2272C58.554 43.651 56.1302 44.0975 56.1302 42.1839C56.1302 40.5893 59.1281 37.0174 60.4675 37.0174C61.4243 36.9536 61.4243 36.8898 60.4037 36.3158C59.8297 35.9969 57.661 35.7417 55.6199 35.8693L51.9842 36.0607L51.6653 38.612C51.2826 41.2272 49.4328 44.6715 48.4123 44.6715C47.5193 44.6715 47.7745 40.972 48.795 38.931C49.3691 37.8466 50.1345 37.0174 50.5172 37.0174C50.8999 37.0174 51.0912 36.8261 50.8361 36.6347C50.4534 36.1882 45.542 38.4207 43.8198 39.8239C42.7355 40.6531 42.7355 40.8445 43.6285 42.6942C44.7766 44.7991 44.9679 47.6056 44.075 48.1797C43.2458 48.69 41.4598 45.9472 41.4598 44.1613C41.4598 42.1839 40.5668 42.8218 38.5257 46.3299L36.8036 49.264L38.4619 50.6035C40.1203 51.9429 41.8425 55.3873 41.2047 56.0251C40.503 56.663 37.6327 54.1116 37.25 52.517C36.8036 50.9224 36.7398 50.9224 36.2933 52.0067C36.0381 52.7084 35.783 54.4943 35.783 55.9614C35.7192 58.3852 35.9106 58.6403 37.569 59.023C39.3549 59.4057 41.9701 61.5744 41.3322 62.2122C40.8857 62.7225 36.9949 61.1917 36.9949 60.5538C36.9949 60.2349 36.676 59.9798 36.3571 59.9798C35.5916 59.9798 36.1019 62.6587 37.3776 65.2101C38.2706 66.8685 38.3344 66.9323 40.503 65.9755C42.8631 65.0187 46.1798 65.4014 45.7334 66.6133C45.6058 66.996 44.075 67.315 42.2252 67.315C40.3755 67.315 38.9084 67.4425 38.9084 67.6339C38.9722 68.0804 41.5236 70.8231 43.182 72.2901C44.4577 73.4383 44.649 73.4383 46.1798 72.4177C47.902 71.2696 52.3031 71.5247 52.3031 72.7366C52.3031 73.6934 50.0069 74.6502 47.7745 74.6502C45.8609 74.6502 45.7971 74.7139 46.7539 75.7983C47.902 77.074 48.2209 79.7529 47.2642 79.7529C46.3712 79.7529 44.0112 76.5637 44.0112 75.3518C44.0112 74.7139 42.9906 73.3107 41.7787 72.0988L39.5463 69.9301V71.9712C39.5463 73.1193 39.2911 74.0123 38.9722 74.0123C38.0792 74.0123 36.9311 70.2491 37.3776 68.6544C37.569 67.889 37.0587 65.8479 36.2933 64.1257C35.0176 61.1917 34.8262 61.0641 34.2522 62.3398C33.9333 63.1052 33.2316 63.8706 32.7851 64.062C31.3181 64.636 31.7646 61.9571 33.423 60.2987C34.5711 59.1506 34.9538 57.9387 35.2089 55.0046L35.4641 51.2413L33.2954 52.7721C29.5321 55.3235 27.9375 54.303 30.9354 51.3689C31.8284 50.4121 33.2316 49.7743 34.316 49.7743C35.783 49.7743 36.3571 49.3278 37.5052 46.904C38.2706 45.3094 40.0565 42.758 41.4598 41.2272L44.0112 38.4207H41.5236C38.3344 38.3569 35.783 37.145 37.0587 36.3158C38.8447 35.2315 42.9268 36.0607 44.075 37.7828C44.2663 38.038 45.6058 37.719 47.0728 37.0174C48.4761 36.3158 50.1983 35.7417 50.8361 35.6779C51.4739 35.6779 50.7085 35.1677 49.1139 34.5936C45.6696 33.3179 44.649 32.6801 44.649 31.8509C44.649 30.8941 46.6263 31.213 49.5604 32.6163ZM17.4131 34.8488C17.732 35.9969 17.6683 37.4001 17.2218 38.612C16.5201 40.4618 16.4564 40.4618 15.5634 39.3137C14.0963 37.2726 14.5428 32.1698 16.2012 32.7439C16.5839 32.8714 17.0942 33.8282 17.4131 34.8488ZM73.033 38.3569C73.6071 40.1429 72.0125 41.7375 70.2265 41.1634C68.9508 40.7807 68.3768 38.4207 69.3335 37.4639C70.2903 36.5071 72.6503 37.0812 73.033 38.3569ZM12.8206 40.7169C13.5223 42.5667 13.0758 46.5851 12.119 46.5851C11.0347 46.5851 9.56765 42.8856 9.56765 40.2066C9.56765 37.7828 9.63143 37.6553 10.8433 38.2931C11.6087 38.6758 12.5017 39.7601 12.8206 40.7169ZM29.5959 43.1407C30.17 43.651 30.6165 44.544 30.6165 44.9905C30.6165 46.2024 28.8305 47.8607 27.491 47.8607C25.0035 47.8607 23.8553 44.0337 26.024 42.8218C27.5548 41.865 28.4478 41.9926 29.5959 43.1407ZM38.5895 43.0769C38.5895 43.3959 37.1863 43.7786 35.4003 43.9061C32.4024 44.0337 32.2749 43.9699 33.4868 43.0769C34.8262 41.9926 38.5895 41.9926 38.5895 43.0769ZM165.903 45.118C165.903 46.1386 166.094 46.5213 166.286 46.0748C166.796 44.7991 170.049 43.3959 172.409 43.3959C174.833 43.3959 176.3 44.6078 175.662 46.2024C175.152 47.6056 173.812 47.478 171.707 45.9472C168.008 43.2045 166.477 46.0748 166.477 55.5787C166.477 61.6382 166.541 61.8295 168.263 63.1052L169.985 64.3809L164.436 64.4447C161.311 64.4447 158.823 64.3171 158.823 64.1257C158.823 63.9344 159.525 63.4879 160.418 63.169C162.012 62.5949 162.012 62.5311 162.012 54.2392V45.9472L160.354 45.1818C158.887 44.4802 158.823 44.3526 159.907 43.9699C160.545 43.7148 162.14 43.4596 163.479 43.4596C165.648 43.3959 165.839 43.5234 165.903 45.118ZM191.991 44.3526C193.904 45.3094 195.818 48.2435 195.818 50.0932C195.818 50.9224 194.67 51.05 188.419 51.05H181.02L181.466 54.0478C182.04 58.2576 183.635 60.7452 186.505 62.1484C189.758 63.743 193.394 62.7863 194.67 59.9798C195.116 58.8954 195.69 58.0662 195.945 58.0662C197.476 58.0662 194.797 62.3398 192.629 63.4879C189.758 64.955 184.337 64.7636 181.785 62.9776C178.086 60.4901 177.001 58.4489 177.001 53.9841C177.001 50.6035 177.32 49.5829 178.724 47.7332C181.785 43.7148 187.781 42.1839 191.991 44.3526ZM206.534 44.3526C206.98 45.2456 207.235 45.2456 208.957 44.3526C211.955 42.8218 216.42 43.0769 218.716 45.0542L220.694 46.7126V54.303V61.8933L222.799 63.169L224.84 64.4447H218.78C213.103 64.3809 212.848 64.3171 214.443 63.4879C215.655 62.7863 216.293 61.8295 216.612 60.2349C217.249 56.9181 216.612 46.8402 215.719 45.7559C213.677 43.3321 208.702 44.0337 207.363 46.9678C206.98 47.8607 206.661 51.5602 206.661 55.196C206.661 61.6382 206.725 61.8295 208.447 63.1052L210.169 64.3809L204.62 64.4447C201.495 64.4447 199.007 64.3171 199.007 64.1257C199.007 63.9344 199.709 63.4879 200.602 63.169C202.196 62.5949 202.196 62.5311 202.196 54.2392V45.9472L200.538 45.1818C199.071 44.4802 199.007 44.3526 200.091 43.9699C202.196 43.0769 205.96 43.3321 206.534 44.3526ZM232.685 44.3526C233.132 45.2456 233.387 45.2456 235.109 44.3526C238.107 42.8218 242.572 43.0769 244.868 45.0542L246.845 46.7126V54.303V61.8933L248.95 63.169L250.991 64.4447H244.932C239.255 64.3809 239 64.3171 240.594 63.4879C241.806 62.7863 242.444 61.8295 242.763 60.2349C243.401 56.9181 242.763 46.8402 241.87 45.7559C239.829 43.3321 234.854 44.0337 233.514 46.9678C233.132 47.8607 232.813 51.5602 232.813 55.196C232.813 61.6382 232.877 61.8295 234.599 63.1052L236.321 64.3809L230.772 64.4447C227.646 64.4447 225.159 64.3171 225.159 64.1257C225.159 63.9344 225.86 63.4879 226.753 63.169C228.348 62.5949 228.348 62.5311 228.348 54.2392V45.9472L226.689 45.1818C225.222 44.4802 225.159 44.3526 226.243 43.9699C228.348 43.0769 232.111 43.3321 232.685 44.3526ZM258.39 50.8586C258.454 55.0046 258.645 59.0868 258.901 59.9798C259.921 63.6155 266.172 63.8068 267.83 60.2349C268.213 59.3419 268.532 55.77 268.532 52.2619V45.9472L266.491 44.6715L264.386 43.3959H268.404H272.359L272.423 51.8154C272.423 61.1917 272.678 62.276 274.974 63.5517C276.377 64.3171 276.25 64.3809 272.55 64.4447C269.361 64.4447 268.532 64.2533 268.532 63.4879C268.532 62.5949 268.341 62.5949 266.618 63.4879C265.598 63.9982 263.302 64.4447 261.516 64.4447C258.709 64.4447 257.944 64.1257 256.349 62.5949C254.499 60.7452 254.499 60.6176 254.499 53.3462V45.9472L252.458 44.6715L250.353 43.3959H254.372H258.326L258.39 50.8586ZM290.219 46.3937V49.4554L288.943 47.3505C287.285 44.6078 284.797 43.651 282.82 44.9905C279.758 46.9678 281.225 49.5191 286.711 52.0067C288.56 52.7721 290.538 54.1116 291.112 54.9408C292.77 57.3008 292.451 60.4263 290.282 62.5949C288.496 64.3171 288.114 64.4447 283.266 64.4447H278.1V61.2555C278.1 59.4695 278.291 58.0662 278.61 58.0662C278.865 58.0662 279.63 59.023 280.268 60.2349C282.501 64.3809 287.731 64.7636 288.688 60.9365C289.198 58.8316 287.986 57.4284 283.457 54.877C281.608 53.8565 279.758 52.4532 279.375 51.7516C278.227 49.5191 278.61 46.8402 280.396 45.0542C281.863 43.5872 282.628 43.3959 286.136 43.3959H290.219V46.3937ZM89.8083 58.1938C91.977 60.3625 89.4256 63.9344 86.7467 62.5311C84.5142 61.3192 85.471 57.4284 88.0224 57.4284C88.5964 57.4284 89.3618 57.7473 89.8083 58.1938ZM102.119 66.3582C104.032 67.4425 105.691 71.461 105.308 74.2037C105.18 75.1604 102.629 73.2469 101.417 71.2696C100.269 69.4198 99.6311 65.7204 100.524 65.7204C100.715 65.7204 101.417 66.0393 102.119 66.3582ZM22.6434 69.8026C23.2175 74.4588 22.5159 78.1583 20.6023 80.3907C18.8164 82.4956 17.5407 82.8146 16.9666 81.2837C16.2012 79.3064 16.5839 73.9485 17.6045 71.9074C19.1353 68.9734 21.0488 66.3582 21.6867 66.3582C22.0056 66.3582 22.4521 67.889 22.6434 69.8026ZM79.4115 69.5474C77.8169 72.6091 74.0536 76.4999 71.1833 77.9669C68.3768 79.434 60.0848 80.4545 60.8502 79.2426C61.0416 78.8599 63.5292 77.8394 66.2719 76.8826C71.8211 75.0329 75.4568 72.7366 78.1996 69.2923C80.3682 66.6133 80.8785 66.7409 79.4115 69.5474ZM89.8721 68.5269C91.4029 70.1215 92.8062 74.2675 92.1683 75.288C91.0202 77.1378 86.7467 71.9712 86.7467 68.7182C86.7467 66.5496 87.9586 66.4858 89.8721 68.5269ZM29.4046 71.5247C29.9786 72.6729 29.8511 73.1193 28.8305 74.1399C27.81 75.1604 27.3635 75.288 26.2154 74.7139C24.9397 74.0123 24.3656 71.5247 25.3224 70.6318C26.2154 69.675 28.7029 70.2491 29.4046 71.5247ZM99.1846 79.6891C98.6105 82.7508 85.0245 96.592 78.5823 100.61C73.9898 103.481 64.6773 107.18 62.1897 107.116C61.4881 107.116 63.0827 106.415 65.6978 105.649C75.5206 102.651 83.5575 97.4212 89.9359 89.8946C92.4235 86.9605 92.8062 86.0676 93.1889 82.5594C93.6354 78.4134 95.1024 75.6707 97.7814 74.2037C99.057 73.502 99.1846 73.6296 99.376 75.4794C99.5035 76.5637 99.4398 78.4134 99.1846 79.6891ZM53.5788 76.9464C54.3442 77.7118 54.2805 77.8394 52.6858 77.8394C50.5172 77.8394 48.2847 76.6913 48.795 75.8621C49.3053 75.0966 52.3031 75.7983 53.5788 76.9464ZM86.6829 76.181C87.7672 77.4567 86.8105 79.1151 85.0883 79.1151C83.4299 79.1151 82.5369 77.8394 83.1748 76.2448C83.6212 75.0329 85.7261 74.9691 86.6829 76.181ZM33.6781 81.9216C33.9333 85.3022 33.6781 86.5778 32.2111 89.8946C30.2976 94.0406 29.7873 94.4871 28.7667 92.5736C26.2791 88.0449 26.7256 81.9854 29.7873 77.9669C31.2543 75.9896 31.5095 75.9259 32.4024 76.8188C33.0403 77.4567 33.5505 79.3064 33.6781 81.9216ZM88.9791 83.0059C89.2343 83.7075 89.2343 85.2384 89.0429 86.3227C88.5964 88.6827 86.4277 91.7444 85.7261 91.0427C84.7694 90.1497 85.1521 85.1108 86.3002 83.3886C87.6396 81.3475 88.4051 81.22 88.9791 83.0059ZM142.048 84.0902C140.517 85.7486 140.517 92.8925 142.048 94.5509C143.004 95.6352 142.941 95.699 139.688 95.699C136.562 95.699 136.371 95.6352 137.519 94.806C138.54 94.0406 138.731 93.0838 138.731 89.3206C138.731 85.5573 138.54 84.6005 137.519 83.8351C136.371 83.0059 136.562 82.9421 139.688 82.9421C142.941 82.9421 143.004 83.0059 142.048 84.0902ZM243.656 88.3C243.656 92.2546 243.911 93.9768 244.613 94.6784C245.442 95.5076 245.187 95.6352 241.934 95.6352C237.597 95.6352 236.002 94.5509 236.002 91.553C236.002 88.8103 237.915 87.0881 240.467 87.5984C242.061 87.9173 242.38 87.7897 242.38 86.7692C242.38 86.1313 241.934 85.1746 241.424 84.6643C240.722 83.8989 240.658 83.58 241.296 83.3886C243.465 82.4956 243.656 82.9421 243.656 88.3ZM256.413 83.8989C256.413 84.4092 255.966 84.8557 255.456 84.8557C254.946 84.8557 254.499 84.4092 254.499 83.8989C254.499 83.3886 254.946 82.9421 255.456 82.9421C255.966 82.9421 256.413 83.3886 256.413 83.8989ZM64.9324 90.8514C64.7411 93.0201 64.1032 95.7628 63.4654 96.9747C62.1897 99.5898 57.4697 104.629 56.3216 104.629C55.1096 104.629 54.5994 100.483 55.4286 97.2298C56.3216 93.8492 58.2989 90.5325 61.5519 87.0243C63.7205 84.7919 63.9119 84.6643 64.5497 85.7486C64.9324 86.3865 65.06 88.6827 64.9324 90.8514ZM181.339 87.4708C182.104 87.5346 185.485 87.5346 188.802 87.5346C192.118 87.5346 195.244 87.8535 195.69 88.1724C196.073 88.5551 196.456 90.0222 196.456 91.4892C196.456 92.9563 196.775 94.4871 197.221 94.9336C197.795 95.5076 197.412 95.699 195.499 95.699C193.585 95.699 193.203 95.5076 193.777 94.9336C194.925 93.7855 194.734 88.7465 193.522 88.2362C192.182 87.726 191.353 88.6827 190.97 91.3617C190.715 92.9563 190.906 93.8492 191.672 94.6147C192.629 95.6352 192.565 95.699 190.332 95.699C188.419 95.699 188.1 95.5076 188.674 94.9336C189.758 93.8492 189.631 89.6395 188.483 88.6827C187.717 88.0449 187.335 88.0449 186.569 88.6827C185.421 89.6395 185.293 93.8492 186.442 94.9974C187.079 95.6352 186.378 95.699 183.061 95.5714L178.915 95.3801L178.724 91.6806C178.596 89.7033 178.277 88.0449 177.894 88.0449C177.576 88.0449 177.767 87.3432 178.405 86.5141C179.489 85.1108 179.553 85.047 179.744 86.1951C179.872 86.8968 180.51 87.407 181.339 87.4708ZM220.885 87.4708C222.288 87.5984 222.288 87.5984 220.885 87.8535C219.609 88.1087 219.418 88.5551 219.418 90.8514C219.418 94.0406 220.439 95.4438 221.842 94.2319C222.607 93.5941 222.735 93.6579 222.48 94.4233C222.288 94.9974 221.395 95.3801 220.311 95.3801C218.525 95.3801 218.461 95.3163 218.27 91.6806C218.142 89.7033 217.823 88.0449 217.441 88.0449C217.122 88.0449 217.313 87.3432 217.951 86.5141C219.035 85.1108 219.099 85.047 219.29 86.1951C219.418 86.8968 220.056 87.4708 220.885 87.4708ZM81.5801 90.7876C81.6439 92.446 81.1974 94.8698 80.6234 96.2093L79.6028 98.5693L78.6461 96.3368C77.5617 93.8492 77.8169 91.4254 79.4115 87.6622C80.3682 85.4935 80.5596 85.3022 81.0061 86.4503C81.325 87.1519 81.5801 89.1292 81.5801 90.7876ZM73.7347 89.0654C74.3725 92.446 73.5433 96.8471 71.7574 99.9088C70.8644 101.44 69.8438 102.843 69.5249 103.034C67.9303 104.055 66.9735 96.7833 68.313 93.339C69.1422 91.1065 72.0763 86.7692 72.7779 86.7692C73.033 86.7692 73.4795 87.7897 73.7347 89.0654ZM146.704 90.7876C146.704 92.6373 147.023 94.4871 147.469 94.9336C148.043 95.5076 147.661 95.699 145.747 95.699C143.834 95.699 143.451 95.5076 144.025 94.9336C144.982 93.9768 145.046 89.5757 144.153 89.0016C143.196 88.4276 144.025 87.407 145.492 87.407C146.513 87.407 146.704 87.8535 146.704 90.7876ZM151.807 88.6189C152.126 89.3206 152.445 90.8514 152.445 91.9995C152.445 93.2114 152.763 94.4871 153.21 94.9336C153.784 95.5076 153.401 95.699 151.488 95.699C149.574 95.699 149.192 95.5076 149.766 94.9336C151.679 93.0201 149.957 87.1519 147.916 88.4276C147.406 88.6827 147.342 88.6189 147.597 88.1724C148.299 86.9605 151.041 87.2795 151.807 88.6189ZM157.037 88.1724C156.59 88.7465 156.654 89.6395 157.356 91.2341L158.249 93.4665L159.206 91.2979C159.907 89.7033 159.907 88.9379 159.397 88.3C158.823 87.5984 159.014 87.407 160.29 87.407H161.885L160.736 89.7033C160.099 90.9152 159.269 92.7649 158.887 93.8492C158.313 95.5714 156.909 96.4644 156.909 95.1249C156.909 94.6784 155.123 90.3411 153.848 87.8535C153.72 87.5984 154.549 87.407 155.634 87.407C157.228 87.407 157.547 87.5984 157.037 88.1724ZM168.263 88.1724C169.794 89.7033 169.092 90.5963 166.477 90.5963C164.372 90.5963 163.926 90.7876 163.926 91.8082C163.926 93.2114 165.52 95.0611 166.732 95.0611C167.115 95.0611 167.817 94.7422 168.263 94.2957C168.773 93.7855 169.028 93.7855 169.028 94.2319C169.028 95.0611 167.561 95.699 165.648 95.699C162.459 95.699 160.8 91.1065 163.096 88.5551C164.245 87.2795 167.115 87.0243 168.263 88.1724ZM176.045 88.3638C176.045 89.193 175.79 89.2568 174.705 88.6189C173.685 88.1087 173.174 88.1087 172.6 88.6827C172.09 89.2568 172.09 89.5757 172.728 89.767C173.174 89.9584 174.323 90.7238 175.216 91.4892C176.619 92.7011 176.746 93.0838 176.108 94.2957C175.024 96.3368 170.942 96.3368 170.942 94.2957C170.942 92.9563 171.006 92.9563 172.218 94.1044C173.238 94.9974 173.685 95.1249 174.259 94.5509C174.897 93.913 174.578 93.339 172.983 91.8719C170.751 89.8308 170.559 89.3206 171.707 88.1724C172.855 87.0243 176.045 87.2157 176.045 88.3638ZM204.62 88.1724C206.151 89.7033 205.449 90.5963 202.834 90.5963C200.729 90.5963 200.283 90.7876 200.283 91.8082C200.283 93.2114 201.877 95.0611 203.089 95.0611C203.472 95.0611 204.174 94.7422 204.62 94.2957C205.13 93.7855 205.385 93.7855 205.385 94.2319C205.385 95.0611 203.918 95.699 202.005 95.699C198.816 95.699 197.157 91.1065 199.454 88.5551C200.602 87.2795 203.472 87.0243 204.62 88.1724ZM209.85 90.7876C209.85 92.6373 210.169 94.4871 210.616 94.9336C211.19 95.5076 210.807 95.699 208.894 95.699C206.98 95.699 206.597 95.5076 207.171 94.9336C208.128 93.9768 208.192 89.5757 207.299 89.0016C206.342 88.4276 207.171 87.407 208.639 87.407C209.659 87.407 209.85 87.8535 209.85 90.7876ZM214.953 88.6189C215.272 89.3206 215.591 90.8514 215.591 91.9995C215.591 93.2114 215.91 94.4871 216.356 94.9336C216.93 95.5076 216.548 95.699 214.634 95.699C212.721 95.699 212.338 95.5076 212.912 94.9336C214.826 93.0201 213.103 87.1519 211.062 88.4276C210.552 88.6827 210.488 88.6189 210.743 88.1724C211.445 86.9605 214.188 87.2795 214.953 88.6189ZM233.451 88.6189C233.77 89.3206 234.088 91.0427 234.088 92.5098C234.088 94.1044 234.344 94.9974 234.726 94.7422C235.109 94.5509 235.364 94.6147 235.364 94.9974C235.364 95.3163 233.706 95.5714 231.728 95.5076C228.412 95.3801 228.029 95.2525 227.838 93.913C227.646 92.7649 228.093 92.2546 229.879 91.553C232.175 90.5963 232.813 89.193 231.41 88.3C231.027 88.0449 230.389 88.3 229.942 88.8741C228.986 90.1497 227.71 90.2773 227.71 89.1292C227.71 87.7897 228.412 87.407 230.644 87.407C232.111 87.407 233.004 87.7897 233.451 88.6189ZM248.886 88.1724C248.44 88.7465 248.504 89.6395 249.205 91.2341L250.098 93.4665L251.055 91.2979C251.757 89.7033 251.757 88.9379 251.246 88.3C250.672 87.5346 251.055 87.407 253.479 87.407H256.413V90.7876C256.413 92.6373 256.732 94.4871 257.178 94.9336C257.752 95.5076 257.434 95.699 255.52 95.699C253.479 95.699 253.16 95.5714 253.798 94.806C254.755 93.7217 254.499 89.193 253.479 88.8741C253.096 88.7465 252.203 90.1497 251.502 91.9995C250.353 94.9336 248.759 96.8471 248.759 95.1887C248.759 94.6784 246.973 90.4687 245.697 87.8535C245.57 87.5984 246.399 87.407 247.483 87.407C249.078 87.407 249.397 87.5984 248.886 88.1724ZM263.429 88.3638C263.429 89.193 263.174 89.2568 262.09 88.6189C261.069 88.1087 260.559 88.1087 259.985 88.6827C259.475 89.2568 259.475 89.5757 260.112 89.767C260.559 89.9584 261.707 90.7238 262.6 91.4892C264.003 92.7011 264.131 93.0838 263.493 94.2957C262.409 96.3368 258.326 96.3368 258.326 94.2957C258.326 92.9563 258.39 92.9563 259.602 94.1044C260.623 94.9974 261.069 95.1249 261.643 94.5509C262.281 93.913 261.962 93.339 260.368 91.8719C258.135 89.8308 257.944 89.3206 259.092 88.1724C260.24 87.0243 263.429 87.2157 263.429 88.3638ZM272.806 88.8103C274.655 90.5325 274.655 92.3184 272.869 94.2319C270.127 97.166 265.343 95.4438 265.343 91.553C265.343 87.726 269.871 86.0038 272.806 88.8103ZM284.669 88.5551C284.542 89.193 284.733 90.5325 285.116 91.553L285.881 93.4665L286.774 91.2979C287.476 89.7033 287.476 88.9379 286.966 88.3C286.392 87.5984 286.583 87.407 287.986 87.407C289.262 87.407 289.581 87.5984 289.134 88.1724C288.752 88.6189 287.731 90.979 286.774 93.4665C285.818 95.8904 284.733 98.3141 284.35 98.6969C283.521 99.7174 281.927 99.7812 281.927 98.8244C281.927 98.4417 282.373 98.3141 282.883 98.5055C283.521 98.7606 284.095 98.3141 284.478 97.2936C284.925 96.0817 284.669 94.9336 283.457 92.1271C282.565 90.1497 281.672 88.6827 281.48 88.9379C281.289 89.1292 280.651 89.0016 280.204 88.5551C279.503 87.9811 279.12 87.9811 278.674 88.7465C277.844 90.0222 277.972 94.0406 278.865 94.9336C279.439 95.5076 279.056 95.699 277.143 95.699C275.229 95.699 274.847 95.5076 275.421 94.9336C276.377 93.9768 276.441 89.5757 275.548 89.0016C274.081 88.1087 275.803 87.5346 280.268 87.4708C284.478 87.407 284.988 87.5346 284.669 88.5551ZM97.59 89.6395C97.59 90.2135 93.8267 91.8719 92.4873 91.8719C90.8926 91.8719 90.8289 90.9152 92.3597 90.0222C93.444 89.3843 97.59 89.0654 97.59 89.6395ZM91.8494 95.6352C91.8494 95.9541 91.2754 96.4006 90.5737 96.592C89.8721 96.7833 88.724 97.166 88.0224 97.3574C86.6191 97.7401 86.1726 96.0179 87.5759 95.5076C88.9153 94.9336 91.8494 95.0611 91.8494 95.6352ZM50.5172 97.4212C51.9204 98.6969 51.9842 100.674 50.581 102.205C49.3053 103.608 47.6469 103.672 46.3074 102.333C44.9679 101.057 45.0317 98.952 46.3712 97.485C47.6469 96.0817 48.9864 96.0179 50.5172 97.4212ZM86.045 100.1C87.5759 101.057 86.1088 102.077 83.1748 102.077C80.1131 102.077 79.539 101.376 81.8353 100.291C83.5575 99.4623 84.8969 99.3985 86.045 100.1ZM34.0608 102.843C34.5711 103.736 34.5073 104.182 33.6781 105.011C31.7646 106.925 28.8943 104.437 30.6165 102.333C31.637 101.184 33.1041 101.376 34.0608 102.843ZM79.4753 105.522C80.6234 106.415 80.6234 106.479 78.965 107.116C78.0082 107.499 76.8601 107.69 76.4136 107.563C75.9671 107.372 74.7552 107.116 73.6709 106.861C71.8211 106.479 71.8211 106.415 72.9693 105.522C74.5639 104.374 77.8807 104.374 79.4753 105.522ZM56.8318 109.795C59.3194 110.625 61.8708 112.729 61.8708 113.941C61.8708 115.089 59.6383 115.663 57.3421 115.153C55.1096 114.643 51.0275 111.326 51.0275 109.987C51.0275 108.902 53.834 108.839 56.8318 109.795ZM70.8644 109.732C73.0968 110.943 72.3314 112.283 69.3335 112.283C66.7184 112.283 63.7843 110.943 63.7843 109.668C63.7843 108.902 69.2698 108.902 70.8644 109.732Z" fill="#5A70AD"/>
<path d="M142.877 45.8204C141.027 47.6701 140.963 47.9253 140.963 53.6021C140.963 60.4908 141.856 62.8508 144.854 63.4886C150.467 64.7643 154.422 55.7069 151.233 48.8182C149.893 45.8842 148.936 44.9274 146.576 44.3533C145.173 43.9706 144.472 44.2895 142.877 45.8204Z" fill="#5A70AD"/>
<path d="M185.293 44.672C183.571 45.3099 182.614 46.5218 182.104 48.6904L181.658 50.4126H186.824H191.991L191.608 48.6266C191.225 46.7769 188.61 44.0342 187.335 44.098C186.888 44.098 185.995 44.3531 185.293 44.672Z" fill="#5A70AD"/>
<path d="M238.681 88.8103C237.597 89.8946 237.724 93.4666 238.872 94.4233C240.977 96.2093 243.018 92.8925 241.743 89.7033C241.105 87.9173 239.893 87.5984 238.681 88.8103Z" fill="#5A70AD"/>
<path d="M179.872 90.8515C179.872 93.658 181.211 95.8266 182.104 94.4234C182.295 94.0407 182.806 93.9131 183.125 94.1045C184.018 94.6785 183.826 89.7033 182.933 88.8104C182.487 88.3639 181.658 88.0449 181.02 88.0449C180.063 88.0449 179.872 88.5552 179.872 90.8515Z" fill="#5A70AD"/>
<path d="M164.755 88.4915C163.224 89.0655 163.926 89.9585 165.903 89.9585C167.625 89.9585 167.817 89.8309 167.115 89.0017C166.286 87.9812 166.031 87.9174 164.755 88.4915Z" fill="#5A70AD"/>
<path d="M201.112 88.4915C199.581 89.0655 200.283 89.9585 202.26 89.9585C203.982 89.9585 204.174 89.8309 203.472 89.0017C202.643 87.9812 202.388 87.9174 201.112 88.4915Z" fill="#5A70AD"/>
<path d="M230.644 92.0634C229.815 92.6374 229.56 93.339 229.879 94.1045C230.261 95.1888 230.389 95.1888 231.282 94.2958C231.856 93.7217 232.175 92.8288 232.047 92.2547C231.856 91.2979 231.728 91.2979 230.644 92.0634Z" fill="#5A70AD"/>
<path d="M268.405 88.747C266.938 89.5762 266.938 92.7016 268.277 94.1049C269.553 95.3806 270.509 95.0616 271.658 93.0205C272.487 91.5535 272.487 91.1708 271.53 89.7037C270.318 87.854 269.999 87.7902 268.405 88.747Z" fill="#5A70AD"/>
</g>
<defs>
<clipPath id="clip0_176_96">
<rect width="318.922" height="122.755" fill="white"/>
</clipPath>
</defs>
</svg>
